<?xml version="1.0" encoding="UTF-8"?>
<svg version="1.1" viewBox="0 0 2048 1216" width="1280" height="1280" xmlns="http://www.w3.org/2000/svg">
<path transform="translate(223,43)" d="m0 0h33l24 3 22 5 19 7 14 7 4-2 8-11 5-1 3 3 1 3 7 87v8l-2 2-11 3-4-1-5-10-7-16-8-16-10-14-11-12-9-8-16-9-12-5-14-3h-30l-16 4-16 9-12 11-6 7-12 17-11 23-6 19-3 17-1 10v25l2 22 5 25 8 23 8 15 9 12 11 12 12 9 14 8 11 3 7 1h34l13-2 14-5 5-4 3-8 2-13v-52l-4-10-2-2-6-1-22-1-1-1v-15h127v16l-16 1-7 2-3 4-1 7v63l1 10-5 5-23 10-24 8-27 6-22 4-5 1 33 4 19 4 21 6 19 7 10 5 2 2v22l-1 18-3 15-5 10-7 6 7 3-1 2 27 6 25 6 73 15 38 7 32 6 21 3 10 2 31 3 19 5 2 2v13l-6 4-3 3-5 1-2 5-6 4-12 9-5 1-2 4-14 10-3 3-6 4-7 5-5 5-3 1-3 4-5 3-3 3-7 1-1 5-6 3-4 4h-29l-1 16 1 355 1 17 3 10 6 12 8 6 14 5 17 2h49l31-1 1-90 5-5 12-9 13-11 11-8 9-7 15-11 9-6 14-11h2l2-4 12-6h2v-8l-8-3-6-1-4-5-11-6-10-6-16-10-10-9-8-6-2-5-4-2-8-11-5-8-4-7-5-16-4-13v-8l3-12 3-6 3-13 6-7 4-8 9-10 8-7 12-10 4-4 16-11 6-4 10-9 10-7 11-8 7-6 11-8 6-3 4-5 12-8 9-7 13-8 4-2 3-3 11-4 5-3 10-4 21-8 22-6 18-5 22-4 16-3 47-4 43-2h49l39 2 50 4 46 7 31 6 39 6 22 2h9l12-4 10-9 8-6 9-7 4-2 4-5 9-5 16-1 6 2 5 8 1 4 1 104v53l-3 3-15 11-14 10-8 6-4 4-9 6-17 13-10 7-9 5-1 8 2 2 21 6 30 11 28 13 11 7 8 6 14 10 13 13 8 11 7 10 4 8 7 25v23l-8 24-6 9-4 5-2 1-4 7-6 5-5 5-16 14-11 8-14 11-6 5-5 1-1 3-14 10h-2v2l-19 14-9 7-10 7-13 10-11 7-21 11-15 7-32 12-20 6-26 6-19 3-12 3-29 3-5 2-21 2-27 1h-114l-37-1-18-2-10-2-31-3-7-2-10-2-30-3-5-2-19-2-25-2-10-2-12 1-15 3-13 1-1 3-12 3h-2l-1 4-6 3h-2l-1 3-7 4-4 4-4 2-3 4h-29l-1-1-1-52-1-21-5 1-11 10-11 7-20 16-16 12-10 7-10 8-5 2-5 5-5 3-3 2-28 3-16 3-44 3-12 2-2 1-38 3-18 3-40 4-3 2-38 4-25 4-21 3-23 4-43 7-23 5-19 3-20 4-32 6-17 4-26 3h-12l-1-3v-13l7-2 8-2 2-7 6-4 2-4 4-1 16-13 14-10 4-2 5-5 10-8 8-7 11-7 10-8 8-5 12-4 3-3v-497l-1-15-7-11-2-8-6-5-4-5-5-5v-3l-5-1-9-6-10-5-5-3-12-6-15-5-16-6-8-1-5-3-13-4-6-4-1-2v-10l3-5 4 3 7 1 2-11 6-3 2-4 14-9 5-5 9-7h2l2-4 8-7 11-14 6-9 6-10 6-7 8-7 12-9 14-8 19-7 17-5 28-5-7-3-26-6-18-6-19-9-12-8-12-11-12-12-10-14-11-21-7-21-4-20-1-8v-47l3-15 6-18 8-17 9-14 8-10 9-10 9-8 17-12 16-9 18-7 25-6zm8 331-14 2-14 5-14 8-14 11-5 5-1 5v3l14 4 2 2 20 5 4 2 18 4 8 3 12 3 9 3 15 3 13 4 23 5h5l-1-2-3-1-5-13-1-9-1-21-3-14-4-7-12-6-11-3-11-1zm688 275-8 3 3 3 10 4 8 5 16 8 7 4 20 8 17 6 21 6 17 5 28 7 38 9 25 6 10 3 24 5 10 2 10 3 45 10 4 2 11 1-1-5-4-5-3-4h-2l-2-4-4-6-12-10h-2l-2-4-6-4-8-5-3-4-6-2-17-9-13-6-9-3-5-3-13-4-16-5-15-4-16-3-9-3-19-3-9-2-9-1-27-1zm-150 226 2 9 12 16 7 10h2l2 4 11 10 5 5 8 7 16 11 24 14 28 13 17 6 13 5 39 11 34 7 45 6 24 2h82l16-1 5-2-6-11-4-3h-2l-2-4-8-6-15-9-19-9-29-11-31-9-67-17-42-10-36-9-55-14-31-9-30-9-12-3z" fill="#05204D"/>
<path transform="translate(223,43)" d="m0 0h33l24 3 22 5 19 7 14 7 4-2 8-11 5-1 3 3 1 3 7 87v8l-2 2-11 3-4-1-5-10-7-16-8-16-10-14-11-12-9-8-16-9-12-5-14-3h-30l-16 4-16 9-12 11-6 7-12 17-11 23-6 19-3 17-1 10v25l2 22 5 25 8 23 8 15 9 12 11 12 12 9 14 8 11 3 7 1h34l13-2 14-5 5-4 3-8 2-13v-52l-4-10-2-2-6-1-22-1-1-1v-15h127v16l-16 1-7 2-3 4-1 7v63l1 10-5 5-23 10-24 8-27 6-22 4-5 1 33 4 19 4 21 6 19 7 10 5 2 2v22l-1 18-3 15-5 10-7 6 7 3-1 2 27 6 25 6 73 15 38 7 32 6 21 3 10 2 31 3 19 5 2 2v13l-6 4-3 3-5 1-2 5-6 4-12 9-5 1-2 4-14 10-3 3-6 4-7 5-5 5-3 1-3 4-5 3-3 3-7 1-1 5-6 3-4 4h-29l-1 16 1 355 1 17 3 10 6 12 8 6 14 5 17 2h49l31-1 1-74h1v120h-1l-1-21-5 1-11 10-11 7-20 16-16 12-10 7-10 8-5 2-5 5-5 3-3 2-28 3-16 3-44 3-12 2-2 1-38 3-18 3-40 4-3 2-38 4-25 4-21 3-23 4-43 7-23 5-19 3-20 4-32 6-17 4-26 3h-12l-1-3v-13l7-2 8-2 2-7 6-4 2-4 4-1 16-13 14-10 4-2 5-5 10-8 8-7 11-7 10-8 8-5 12-4 3-3v-497l-1-15-7-11-2-8-6-5-4-5-5-5v-3l-5-1-9-6-10-5-5-3-12-6-15-5-16-6-8-1-5-3-13-4-6-4-1-2v-10l3-5 4 3 7 1 2-11 6-3 2-4 14-9 5-5 9-7h2l2-4 8-7 11-14 6-9 6-10 6-7 8-7 12-9 14-8 19-7 17-5 28-5-7-3-26-6-18-6-19-9-12-8-12-11-12-12-10-14-11-21-7-21-4-20-1-8v-47l3-15 6-18 8-17 9-14 8-10 9-10 9-8 17-12 16-9 18-7 25-6zm8 331-14 2-14 5-14 8-14 11-5 5-1 5v3l14 4 2 2 20 5 4 2 18 4 8 3 12 3 9 3 15 3 13 4 23 5h5l-1-2-3-1-5-13-1-9-1-21-3-14-4-7-12-6-11-3-11-1z" fill="#40648E"/>
<path transform="translate(1687,362)" d="m0 0h242l5 3 4 6 8 24 5 16v6l-2 1 4 1v2l15-2 5-3 16-4 6-3 18-4 5-3 2 2 1 6v16l-1 5-7 2-1 4-8 2-1 4-5 3h-2l-1 4-6 2-2 4-7 3-2 4-5 2-5 5-4 2-3 4-5 1-2 4-7 4-3 3-12 8-5 5-9 5-12 4-7 5-1 27v460l2 36 2 7 7 12 8 7 16 11 22 10 24 7 22 5 17 4 2 1v24l-6 4-4 4-6 4-8 6-9 7-4 3h-2v2l-9 6-12 9-13 10-9 7-7 4-2 3-5 2-10 5-1 1-14-1-14-2-12-4-21-3-14-3-19-3-5-2-26-4-16-4-20-3-38-6-17-3-23-3-11-2-34-3-8-3-42-4-13-3-30-2-10-2-6-2-42-2-18-2-10-2-29-2-3-1-1-4v-10l10-6 14-10 13-11 8-6 14-11 8-6 10-7 12-9 11-9 5-2 4-5 6-2 18 1 5 1v-377l-1-20-4-8-3-13-4-2-14-6-9-3h-52l-12 1-4 2-17 2h-17l-1-1v-12l4-4 11-7 12-10 12-9 11-8 10-8 14-11 16-12 9-7 7-3 2-4 16-5 13-2 20-2 20-4 27-4 16-3 22-4 28-5 23-5 38-8 16-4 51-10 34-8 60-16 21-6 2-2 14-4-8-3-1-3-6-2-8-7-10-9-14-11-8-5-15-6-12-2-45-1-13 1-11 4-5 6-2 6-3 41-2 9-3 5-9 4-25 3h-7l-8-4-4-6-2-8-1-10-1-36-3-9-4-3-21-2-8-1-1-1v-11z" fill="#05204D"/>
<path transform="translate(28,490)" d="m0 0h8v2h5v2l23 3 6 3 12 3 26 8 13 3 9 3 4 2 22 5 34 9 18 5 16 4 22 5 17 4 23 5 32 7 21 4 25 4 6 2 31 5 21 4 19 3 24 4 20 3 32 4 2 5-1 10h-5l1-3-36-1-26-2h-20l-19 3-13 5-8 7-4 5-3 10-3 27-1 55v207l-1 103 1 38 2 17 2 4 3 14 6 8 12 8 7 2 23 2h31l36-1v-2l6-1h8l2 4v11l-4 2-21 2-16 3-44 3-12 2-2 1-38 3-18 3-40 4-3 2-38 4-25 4-21 3-23 4-43 7-23 5-19 3-20 4-32 6-17 4-26 3h-12l-1-3v-13l7-2 8-2 2-7 6-4 2-4 4-1 16-13 14-10 4-2 5-5 10-8 8-7 11-7 10-8 8-5 12-4 3-3v-497l-1-15-7-11-2-8-6-5-4-5-5-5v-3l-5-1-9-6-10-5-5-3-12-6-15-5-16-6-8-1-5-3-13-4z" fill="#05204D"/>
<path transform="translate(1364,521)" d="m0 0h7l6 2 5 8 1 4 1 104v53l-3 3-15 11-14 10-8 6-4 4-9 6-17 13-10 7-9 5-1 8 2 2 21 6 30 11 28 13 11 7 8 6 14 10 13 13 8 11 7 10 4 8 7 25v23l-8 24-6 9-4 5-2 1-4 7-6 5-5 5-16 14-11 8-14 11-6 5-5 1-1 3-14 10h-2v2l-19 14-9 7-10 7-13 10-11 7-19 10h-2l1-3h3v-2l5-1v-2l8-4 4-3h2v-2l4-1v-2h3l1-3 4-2 5-5h2l1-3 5-2 9-10 3-6 2-3h2l3-9 4-9 2-14v-27l-2-11-7-16-7-11-9-11-6-4-5-5-7-6-8-6-5-4-8-4-16-9-13-6-12-5-7-3-18-6-10-3-16-6-26-7-18-5-26-7-18-4-14-4-18-4-33-8-44-10-46-11-16-4-31-9-23-8-26-11-15-8-11-6-5-4-4-4v-2l-5-2-8-13-1-2v-15l5-9 5-6 10-8 16-9 18-7 22-6 26-3 7-2h8l2 1 1-3 5-2h79l14 2v2l-11 1-77 1-7 2 2 2 10 4 8 5 16 8 7 4 20 8 17 6 21 6 17 5 28 7 38 9 25 6 10 3 24 5 10 2 10 3 45 10 4 2 11 2 4 12 5-1 2 11v3l27-1v-5l2-4v-12l-1-15-3-14-1-14-2-85-1-15-2-2-18 1-9 3-3 9-3 4h-2l-2 7-3 2h-4v4l-19 6-7 1h-19l-11-1-6-2-36-4-4-2-19-3-17-2-1-2-14-2-18-1-12-3-31-2-29-1h-97l-39 2-27 3-12 2-19 3-13 4-31 8-21 7-11 5-9 4-9 1-1 4-7 3-3 4-5-1 3-3 16-11 6-4 10-9 10-7 11-8 7-6 11-8 6-3 4-5 12-8 9-7 13-8 4-2 3-3 11-4 5-3 10-4 21-8 22-6 18-5 22-4 16-3 47-4 43-2h49l39 2 50 4 46 7 31 6 39 6 22 2h9l12-4 10-9 8-6 9-7 4-2 4-5 9-5z" fill="#185390"/>
<path transform="translate(1902,510)" d="m0 0 3 1-6 4-1 27v460l2 36 2 7 7 12 8 7 16 11 22 10 24 7 22 5 17 4 2 1v24l-6 4-4 4-6 4-8 6-9 7-4 3h-2v2l-9 6-12 9-13 10-9 7-7 4-2 3-5 2-7 3-3-1v-14l-15-2-2-2-15-3-11-1-6-3-15-3-3-3-14-4-1-4h-6l-9-3-1-4-8-1v-5h-5l-3-8-1-3-6-2-4-13-2-1-2-10v-506l4-23 5-12 6-7 7-8 11-10 11-7 3-2 6-2 28-11z" fill="#40648E"/>
<path transform="translate(24,485)" d="m0 0 4 3 15 1 23 7 17 5 13 4 12 3 13 4 14 4 10 3 32 8 22 6 35 9 28 7 50 11 27 5 43 8 23 4 55 9 14 2 15 1 16 4 13 1 6 3 3 9-2 5-2 1h-29l-1 16 1 355 1 17 3 10 6 12 8 6 14 5 17 2h49l31-1 1-74h1v120h-1l-1-21-5 1-11 10-11 7-20 16-16 12-10 7-10 8-5 2-5 5-5 3-3 2-4-1v-11l-1-3h-8l2 2-8 1-36 1h-31l-23-2-8-3-11-7-7-9-6-24-1-11-1-45 1-106v-211l1-43 3-25 3-10 7-8 6-5 13-5 19-3h20l26 2 34 1 2 1v2l4 1v-10l-1-5-18-1-14-2-34-5-20-4-27-4-14-3-20-3-12-3-19-3-21-4-32-7-15-3-8-2-42-10-24-6-53-14-12-3-6-3-16-3-11-4-15-4-6-2-13-4-7-2-17-3-5-2v-2h-8v15l-6-3-1-2v-10z" fill="#18538F"/>
<path transform="translate(729,856)" d="m0 0 4 1v3l5 1 22 11 18 2 1 3-10-2 4 11 5 6 12 16v2h2l7 8 7 6v2l4 2 8 7 16 11 24 14 28 13 17 6 13 5 39 11 34 7 45 6 24 2h82l16-1 4-2-2-3 1-2 4 2 1 12v21l-3 9-4-1-2 7-3 2h-3l-2 5-10 6-17 8-19 7-13 4-25 5-36 4-27 2h-36l-18-2h-13l-41-5-24-4-22-5-31-8-12-4-13-4-20-8-23-11-9-5-13-8-10-8-11-9-7-6-3-3-5-4-3-5-5-4-3-5-4-4-3-7-5-4-4-10-3-2-5-14-2-3-5-2-19 1-1-2 6-4 9-7 12-10 11-8 9-7 15-11 9-6 14-11h2l2-4 12-6h2v-8z" fill="#40648E"/>
<path transform="translate(885,43)" d="m0 0h36l27 4 18 5 16 7 13 8 11 8 10 8 11 11 13 18 9 16 7 16 5 17 3 17 1 11v27l-2 15-5 21-11 25-14 21-11 12-12 12-14 10-16 9-13 6-23 6-18 4-4 1 28 4 21 6 12 5 13 7 13 9 14 12 8 8 10 13 6 10 2 5v7l-5 5-3 1h-23l-15-2-8-5-4-5-12-24-12-15-11-9-13-8-14-5-10-2h-22l-16 4-16 8-14 10-9 8-11 14-14 22-6 5-8 2-13 1h-27l-6-4v-8l5-12 9-14 9-10 10-10 14-9 16-8 13-5 22-6 28-5-12-4-22-5-18-6-25-12-14-10-10-9-9-11-10-14-11-23-6-19-3-15-1-11v-33l3-19 4-15 6-16 8-15 8-12 9-12 9-10 10-10 13-10 17-10 16-6 25-6zm1 20-14 4-12 7-10 8-12 12-10 16-7 15-7 21-3 14-2 14v35l4 29 5 19 8 20 9 15 9 12 14 14 14 9 15 7 14 3h12l17-3 11-4 10-6 10-9 10-10 10-16 8-20 6-21 4-27v-28l-3-24-5-20-8-20-9-16-14-19-11-11-18-12-10-5-10-3z" fill="#1C4A74"/>
<path transform="translate(1364,521)" d="m0 0h7l6 2 5 8 1 4 1 104v53l-3 3-4 2 1-8v-12l-3-22-5-12-2-3 1-4h-3l-2-5-2-4-9-2-10 1-2-2h-12l-5-1-3 3h-14l-7 3-12 2-1 2h-2l-1 4-4 1-2-3-5-2v2h-2l-2-30-1-4-19 1-16 8-2-1-1 3h-2l-2 6-5 3-7 2-3 2h-6l-3 3-9-1v6l-5 3-3-1-1 2-4-2-11 1v1l-14-1h-4l-9-1-4-1-10-1-8-2-12-1-5-2-10-2-12-2-29-3-9-2-23-1-35-2-12-2h-8l-3-1-17-1h-37l-1 1-16 1-11 1-11 2h-25l-5-1-9 3-38 4-7 3-12 2-10 2-10 4-4 1-9 2-6 3-20 4 1 3-4 3-10 3-4 4-7 1-1 4-7 3-3 4-5-1 3-3 16-11 6-4 10-9 10-7 11-8 7-6 11-8 6-3 4-5 12-8 9-7 13-8 4-2 3-3 11-4 5-3 10-4 21-8 22-6 18-5 22-4 16-3 47-4 43-2h49l39 2 50 4 46 7 31 6 39 6 22 2h9l12-4 10-9 8-6 9-7 4-2 4-5 9-5z" fill="#40648E"/>
<path transform="translate(428,48)" d="m0 0h152l18 2 17 5 19 10 11 9 9 8 9 13 5 10 3 12v12l-2 15-6 16-7 12-9 10-13 9-17 8-15 4-9 1 2 3 10 5 16 16 17 26 14 22 13 19 14 19 11 12 10 5 21 4 1 14-1 1h-92l-9-11-11-17-15-26-17-33-11-19-11-14-9-8-10-4h-17v62l2 35 2 11 4 7 21 1 4 2v13l-1 1h-124v-15l3-1h11l11-2 4-4 2-9 1-51v-68l-1-118-3-10-3-5-2-1-22-1-1-2v-14zm105 15-7 3-4 6-1 4-1 28-2 86v12l2 1h26l10-2 12-5 8-5 7-6 10-13 7-14 4-15 1-8v-12l-2-14-4-12-6-11-7-7-11-7-13-6-13-3z" fill="#1C4A74"/>
<path transform="translate(1687,362)" d="m0 0h242l5 3 4 6 8 24 5 16v6l-2 1 4 1v2l15-2 5-3 16-4 6-3 18-4 5-3 2 2 1 6v16l-1 5-7 2-1 4-8 2-1 4-5 3h-2l-1 4-6 2-2 4-7 3-2 4-5 2-5 5-4 2-3 4-5 1-2 4-7 4-3 3-12 8-5 5-9 5h-3l-1-21-13 5-19 5-62 18-25 7-31 8-44 11-25 6-19 5-80 16-53 10-47 8-11 3-20 3-16 2-3 1-16 2-8 3-4-1 14-9 12-10 12-9 11-8 10-8 14-11 16-12 9-7 7-3 2-4 16-5 13-2 20-2 20-4 27-4 16-3 22-4 28-5 23-5 38-8 16-4 51-10 34-8 60-16 21-6 2-2 14-4-8-3-1-3-6-2-8-7-10-9-14-11-8-5-15-6-12-2-45-1-13 1-11 4-5 6-2 6-3 41-2 9-3 5-9 4-25 3h-7l-8-4-4-6-2-8-1-10-1-36-3-9-4-3-21-2-8-1-1-1v-11z" fill="#40648E"/>
<path transform="translate(1091,48)" d="m0 0h131l7 1v15l-1 1-23 1-8 3-6 7-2 7v133l1 35 2 24 4 15 5 12 11 12 10 7 12 5 14 3h16l16-4 13-5 11-7 11-11 7-11 7-17 3-16 1-11v-76l-1-34-3-40-3-18-5-9-3-3-3-1-18-1-1-3v-13l1-1 98 1 1 1v13l-2 2-20 1-7 4-4 8-1 6-1 87-1 44-2 44-4 21-6 16-8 15-13 16-10 8-17 10-16 6-27 7 10 2 19 3 16 6 12 6 12 9 5 4 7 8 7 11 7 16 2 8v10l-5 5h-6l-6-5-8-17-10-15-8-9-14-9-13-6-19-4h-17l-15 3-12 5-11 7-7 6-8 14-8 25-5 5-16 3-13 1h-12l-7-3-2-3-1-9 3-15 8-16 6-9 9-11 8-7 14-8 14-5 25-4 12-2-10-3-22-4-15-5-13-7-13-11-7-8-7-10-8-16-4-11-4-22-2-25-1-153-3-13-4-4-26-1-1-2v-12z" fill="#1C4B74"/>
<path transform="translate(1832,535)" d="m0 0 2 1-11 8-6 5h-2v2l-8 7-7 9-6 8-2 7-2 12-1 13v10l1 7 9 3v-2l4 1 5 3 6 4 9 3 1-3v2h15l6 1h6l7-2 9 1h4l8 6 2 5v3l5 1 6 11v97l-2-1h-98v3h100v188l-1 33-7 21-4 3h-2l-1 4-5 4-8 1h-8l-2-1v-4h-9l-13-1-9-1-2-1h-8l3 2h-10l-1 3-4 3-2 6-4 10-1 6h-1l-2 9-2 7-1 46 2 9 1 3v15l-2-4-2-1-2-10v-506l4-23 5-12 6-7 7-8 11-10 11-7z" fill="#18528F"/>
<path transform="translate(223,43)" d="m0 0h33l24 3 22 5 19 7 14 7 4-2 8-11 5-1 3 3 1 3 7 87v8l-2 2-11 3-4-1-5-10-7-16-8-16-10-14-11-12-9-8-16-9-12-5-14-3h-30l-16 4-16 9-12 11-6 7-12 17-11 23-6 19-3 17-1 10v25l2 22 5 25 8 23 8 15 9 12 11 12 12 9 14 8 11 3 7 1h34l13-2 14-5 5-4 3-8 2-13v-52l-4-10-2-2-6-1-22-1-1-1v-15h127v16l-16 1-7 2-3 4-1 7v63l1 10-5 5-23 10-24 8-27 6-22 4h-49l-20-4-23-6-20-8-15-8-13-10-18-18-10-14-11-21-7-21-4-20-1-8v-47l3-15 6-18 8-17 9-14 8-10 9-10 9-8 17-12 16-9 18-7 25-6z" fill="#1C4A74"/>
<path transform="translate(1412,48)" d="m0 0h134l27 2 17 3 18 6 15 9 12 11 7 8 7 12 6 17 1 5 1 18-1 14-4 14-7 14-8 10-8 8-14 9-14 6-13 4-17 3-20 2h-21l-20-2 1 86 1 14 3 9 3 3 23 1 7 1v15h-134v-15l1-1 24-1 4-2 2-6 1-8 1-45v-169l-1-31-2-5-3-1-29-1-1-1v-15zm105 15-7 3v139l8 2 8 1h14l12-4 10-6 10-8 8-10 6-12 4-15 1-20-1-14-5-19-8-14-6-7-13-9-12-5-8-2z" fill="#1B4A74"/>
<path transform="translate(1686,48)" d="m0 0h232l3 3 15 59 2 8v4l-8 4-5-1-7-7-7-8-12-12-2-1v-2l-4-2-8-8-14-10-13-6-10-3-56-2h-5l-1 32-1 91 40-2 10-3 10-8 6-9 6-16 2-7 15 1 1 1v63l2 33-2 2-6 1h-8l-8-20-5-8-7-6-11-4-14-2-30-1v66l2 44 2 10 5 8 11 4h60l16-4 14-8 14-12 15-16 9-11 10-10 5 1 6 4-1 9-11 38-7 22-3 3h-248v-15l1-1 28-1 5-3 3-9v-180l-1-49-1-13-3-9-3-3-3-1-25-1-1-1v-15z" fill="#1C4A74"/>
<path transform="translate(729,856)" d="m0 0 4 1v3l5 1 22 11 18 2 1 3-10-2 4 11 5 6 12 16v2h2l7 8 7 6v2l4 2 8 7 16 11 24 14 28 13 17 6 13 5 39 11 34 7 7 1 1 3-3 1 4 2v2l2 1-2 2-11 1-9-2-11 2-3-1v2l-13-1h-12l-17-2h-13l-6-1h-11v-2l-9-1-5-3-3-4v-2l-7-1v-3l-8 2-2 4-4 3-12 1-1 3-18 3h-17l-1 3-9 3-2 1h-7l-2-4-5-2-2-6-4-6-5-5-11 1-5 7v6l-6 5-7 1-10-3-9 1 3 8 3 2v2l5 2 8 6v2h2v2l5 1 32 16 21 8 16 5 25 7 24 5 22 4 14 2 10 2 39 2h63l30-1 22-3 17-3 7-2 21-7 18-8 9-5 4-3 5-3 2-4h5l3-10 3-2 2 1 1-13-1-3-6 2-2-6-15-2v-5l3-2 13-1 6-2-2-4 1-2 4 2 1 12v21l-3 9-4-1-2 7-3 2h-3l-2 5-10 6-17 8-19 7-13 4-25 5-36 4-27 2h-36l-18-2h-13l-41-5-24-4-22-5-31-8-12-4-13-4-20-8-23-11-9-5-13-8-10-8-11-9-7-6-3-3-5-4-3-5-5-4-3-5-4-4-3-7-5-4-4-10-3-2-5-14-2-3-5-2-19 1-1-2 6-4 9-7 12-10 11-8 9-7 15-11 9-6 14-11h2l2-4 12-6h2v-8z" fill="#18538F"/>
<path transform="translate(441,605)" d="m0 0h9l19 2 9 1h23v3l-7 1-1 16 1 355 1 17 3 10 6 12 8 6 14 5 17 2h49l31-1 1-74h1v120h-1l-1-21-5 1-11 10-11 7-20 16-16 12-10 7-10 8-5 2-5 5-5 3-3 2-4-1v-11l-1-3h-8l2 2-8 1-36 1h-31l-11-2-20-6-10-7-5-4-2-4-2-19-2-20v-9l1-6 1-16 1-10 2-3 10-2h29l24 1h7l1 1h15l17-1-1-7-3-3v-61l-1-67 1-37v-109l-4-2 3-7 1-2h2l-1-3-1-32-1-18-3-19-4-7-4-4-2-1v-4l-4 2-7-1-2-2-10-4v-2l-6-2-5-1-7-1-1-5 6-4 4-3z" fill="#40648D"/>
<path transform="translate(1937,1078)" d="m0 0 5 1 16 7 29 8 28 6 5 2v24l-6 4-4 4-6 4-8 6-9 7-4 3h-2v2l-9 6-12 9-13 10-9 7-7 4-2 3-5 2-7 3-3-1v-14l-15-2-2-2-15-3-11-1-6-3-15-3-3-3-14-4-1-4h-6l-9-3v-6l-7-1-3-5v-4l-5-1-2-6-7-3v-19l4-1 3 3 1 10 4-2 3-9 6-4 5-1 7 3h5l8-7 4-4 7 1 3 1 5 5 1 3 8-1 6 1 4-3 5 1 3 3 10-1 14-2 3-3 5-2 11 1 6-4-1-2 7-2v-2h6l5 1 2-1-1-4-7-3v-2l-4-2-4-4z" fill="#567290"/>
<path transform="translate(883,357)" d="m0 0h39v1l28 4 21 6 12 5 13 7 13 9 14 12 8 8 10 13 6 10 2 5v7l-5 5-3 1h-23l-15-2-8-5-4-5-12-24-12-15-11-9-13-8-14-5-10-2h-22l-16 4-16 8-14 10-9 8-11 14-14 22-6 5-8 2-13 1h-27l-6-4v-8l5-12 9-14 9-10 10-10 14-9 16-8 13-5 22-6 28-5z" fill="#8B959D"/>
<path transform="translate(1897,512)" d="m0 0v3l-4 3-1 3v140l-3-4-4-7-4-1-4-9-6-4h-4l-10-1-7 2h-8l-8-1h-8-3l-9-2-8-6-7-3v2l-9-3-2-7v-12l2-15 2-12 3-6 7-9 7-8 4-4h2v-2l13-10 12-7 26-10z" fill="#3F638E"/>
<path transform="translate(1687,362)" d="m0 0h242l5 3 4 6 8 24 5 16v6l-2 1 4 1v2h7l-1 2-9 3h-9v-1l5-1-8-3-1-3-6-2-8-7-10-9-14-11-8-5-15-6-12-2-45-1-13 1-11 4-5 6-2 6-3 41-2 9-3 5-9 4-25 3h-7l-8-4-4-6-2-8-1-10-1-36-3-9-4-3-21-2-8-1-1-1v-11z" fill="#8B959D"/>
<path transform="translate(211,356)" d="m0 0 48 1v1l33 4 19 4 21 6 19 7 10 5 2 2v22l-1 18-3 15-5 10-7 6v1h-8l-3-2 3-1-11-2-13-1-8-4-5-13-1-9-1-21-3-14-4-7-11-5-11-3-11-1h-29l-14 2-14 5-14 8-14 11-4 4-1 3 2 1-3 3 4 2-4 1-3-2 1-4h-8v-2l-6-1-1-4-17 1-1 3-7 1-2 8-7-1-1 6-6 1-3 6h-6l-1 6h-5l-3 5-5 2-2-3 8-9 6-9 8-13 6-7 8-7 12-9 14-8 19-7 17-5 28-5z" fill="#8B959D"/>
<path transform="translate(1230,357)" d="m0 0h10l14 1 28 4 16 5 16 8 12 9 5 4 7 8 7 11 7 16 2 8v10l-5 5h-6l-6-5-8-17-10-15-8-9-14-9-13-6-19-4h-17l-15 3-12 5-11 7-7 6-8 14-8 25-5 5-16 3-13 1h-12l-7-3-2-3-1-9 3-15 8-16 6-9 9-11 8-7 14-8 14-5 25-4 12-2z" fill="#939EA7"/>
<path transform="translate(1555,1028)" d="m0 0h1v36l-1 22-2 9h-2l-1-3-4 13-5 1-2 4-7 5-14 3-1 1-19 2h-32l-46-1-2-1v9h-1v-10l10-6 14-10 13-11 8-6 14-11 8-6 10-7 12-9 11-9 5-2 4-5 6-2 18 1 5 1z" fill="#41648E"/>
<path transform="translate(1416,362)" d="m0 0h127l4 1 1 6-1 6-25 1-7 3-3 7-1 6-2 41-3 8-5 5-7 2h-33l-6-3-4-8-2-8-2-35-2-12-5-4-24-3-1-3v-8z" fill="#8C959D"/>
<path transform="translate(633,362)" d="m0 0 87 1 1 4-1 7-6 2-14 3-12 5-5 5-11 12-7 8-12 15-9 11-7 7-10 5-13 2-19-1-10-3-3-7 4-10 10-18 24-36 10-11z" fill="#C0C5C9"/>
<path transform="translate(429,362)" d="m0 0 65 1h56v11l-1 1-16 1-7 2-4 5-3 19-2 26-2 9-4 6-7 3h-28l-9-2-4-4-2-5-1-8-1-38-4-9-7-3-5-1-14-1-2-5 1-7z" fill="#8A959D"/>
<path transform="translate(1249,601)" d="m0 0h19l2 4 2 69 4 14 2 36 1 12 1 19-1 7v7l-1 5h-8l3-1v-5l2-4v-12l-1-15-3-14-1-14-2-85-1-15-2-2-18 1-9 3-3 9-3 4h-2l-2 7-3 2h-4v4l-19 6-7 1h-19l-11-1-6-2-36-4-4-2-19-3-17-2-1-2-14-2-18-1-12-3-31-2-29-1h-97l-39 2-27 3-12 2-19 3-13 4-31 8-21 7-11 5-9 4-2-1 6-5 10-3 1-4 15-4 10-3 12-4 11-3 4-2 14-2 9-2 3-2 16-2 14-1 13-2 5-2 5 1h25l19-3h18l1-2h43l13 1 2 1h10l9 2 36 2 22 1 16 3 31 3 6 2 11 2 3 1 14 2 10 2h9l3 1 5 1 4-1 3 1 8 1v-1l15-1 3 3 1-3 3 1 5-2v-6l5-1 4 2 1-2 4-2 5-1 3-2 9-2 4-7 3-3 4-1 10-5z" fill="#1A4A74"/>
<path transform="translate(914,644)" d="m0 0h79l14 2v2l-11 1-77 1-9 2h-18l-20 4-12 2-7 2-7 3-13 4-9 4-15 8-5 5-6 7-3 7-1 5v9l6 12 5 5 8 7 8 5 3 1v2l6 2 16 8 24 10 22 7 16 5 24 6 13 3 15 4 23 5 13 3 5 1v-2l12 2 10 3 9 1 13 3 9 6 29 6 45 11 15 5 21 5 20 7 9 4 16 5 18 4 9 4 5 3 18 8 10 7 11 6 12 8 2 4 4 2 5 5 5 4 4 2v2l6 2 4 5 5 8 3 10 4 5 5 16v10l-1 10-1 16-1 12-4 7-2 1-4 10-5 5-1 2h-2v4h-2v2l-4 3-2 4-9 6-12 9-13 8-14 7h-2l1-3h3v-2l5-1v-2l8-4 4-3h2v-2l4-1v-2h3l1-3 4-2 5-5h2l1-3 5-2 9-10 3-6 2-3h2l3-9 4-9 2-14v-27l-2-11-7-16-7-11-9-11-6-4-5-5-7-6-8-6-5-4-8-4-16-9-13-6-12-5-7-3-18-6-10-3-16-6-26-7-18-5-26-7-18-4-14-4-18-4-33-8-44-10-46-11-16-4-31-9-23-8-26-11-15-8-11-6-5-4-4-4v-2l-5-2-8-13-1-2v-15l5-9 5-6 10-8 16-9 18-7 22-6 26-3 7-2h8l2 1 1-3z" fill="#1B4A74"/>
<path transform="translate(151,1095)" d="m0 0h1l-1 20-2 10h-2l-1 2h-1l-2 8-2 1-1 4h-4l-3 7-6 1-2 5-6 1v4l-25 10-14 5-21 5-14 4h-3v2h-8l2-1 2-7 6-4 2-4 4-1 16-13 14-10 4-2 5-5 10-8 8-7 11-7 10-8 8-5 12-4z" fill="#587391"/>
<path transform="translate(1169,388)" d="m0 0h12l15 4 7 5 4 1-6 7-7 14-7 22-5 5-16 3-13 1h-12l-7-3-2-3-1-9 3-15 8-16 6-9 3-3 6 1h3v-2z" fill="#B1B6BA"/>
<path transform="translate(361,397)" d="m0 0 2 1-1 28-3 15-5 10-7 6v1h-8l-3-2 3-1-11-2-13-1-8-4-5-13-1-9-1-27h2v2l7 1 45 1 6-2z" fill="#D3D5D6"/>
<path transform="translate(1725,400)" d="m0 0h6l7 2 33 1 4 1 9-2 1-2h2l-2 33-2 9-3 5-9 4-25 3h-7l-8-4-4-6-2-8-1-10v-23z" fill="#C0C5C9"/>
<path transform="translate(796,401)" d="m0 0 4 1h12l10 2 13 2 1 6-20 30-5 4-8 2-13 1h-27l-6-4v-8l5-12 9-14 6-7 1 2h2v-2h2v2l12-4z" fill="#C0C5C9"/>
<path transform="translate(1449,398)" d="m0 0 4 2 5 3h26l11 1 2 1h6l3-2h3l1-3v16l-1 17-3 8-5 5-7 2h-33l-6-3-4-8-2-8-1-24z" fill="#C0C5C9"/>
<path transform="translate(999,402)" d="m0 0h7l12 2 5 1 2-2 11 12 11 17 2 5v7l-5 5-3 1h-23l-15-2-8-5-4-5-12-24-6-9 13-2h8z" fill="#D3D5D6"/>
<path transform="translate(633,362)" d="m0 0 87 1 1 4-1 7-6 2-14 3-12 5-5 5-9 10h-3l-2-5-15-2-13-3h-20v1l-12 3 2-6 10-14 9-10z" fill="#A2A9AD"/>
<path transform="translate(460,400)" d="m0 0 7 1 11 2 27 1 13 2-1 22-2 9-4 6-7 3h-28l-9-2-4-4-2-5-1-8z" fill="#C0C5C9"/>
<path transform="translate(2017,402)" d="m0 0v3l-5 5-13 7-10 5-12 2-10 5-8 3h-7l-15 4-8 3-11 2-6 1-5 3-8 1-4 1-5 2-6 4-19 4-9 3h-17l-6 3-16 2-11 1-6 3-1 1-16 1-1 3-3 1-18 2-22 6-4 1h-14l-5 3-14 2-11-1v-2l42-9 15-3 16-4 51-10 34-8 60-16 21-6 2-2 7-2 11-1 13-5 9-3 5-2 12-3 6-3 18-4z" fill="#587390"/>
<path transform="translate(402,611)" d="m0 0 2 1-8 6-6 7-2 9-4 41-1 28 1 24 1 16 1 29 1 6-1 16v16l1 21 2 11-2 6-1 1-1 24 2 32-1 58v17l-2 16-1 7v14l-1 19v18l1 12h2l1 2 2 22 2 10 5 5 10 7 20 6 3 2-15-1-8-3-11-7-7-9-6-24-1-11-1-45 1-106v-211l1-43 3-25 3-10 7-8 6-5z" fill="#1B4A74"/>
<path transform="translate(1935,367)" d="m0 0 3 4 8 24 5 16v6l-2 1 4 1v2h7l-1 2-9 3h-9v-1l5-1-8-3-1-3-6-2-8-7-10-9-14-11-8-5-15-6-12-2v-1h13l2-1 13-2 11-1 9-1h10l8 2v-2h5z" fill="#949FA8"/>
<path transform="translate(879,650)" d="m0 0h12v1l-26 3-25 7-15 6-18 10-9 8-7 10-1 3v15l7 12 10 10 8 6 28 14 16 7 25 9 30 9 14 4 23 5 37 9 14 3 22 5 33 8 30 7 15 4 24 6 23 6 23 7 14 4 12 5 17 5 12 4 10 5 12 5 19 10 6 4 5 3 8 6 9 7 6 5 4 4 6 5 10 14 7 14 4 11 1 7v27l-2 14-4 9-3 7-1 2h-2l-5 10-10 11-4-1 8-7 5-6 4-9 4-4 7-26v-20l-4-16-5-15-11-17v-2l-3-1-5-5-2-4h-2l-5-5-16-12-6-4-30-15-12-5-12-6-18-6-10-3-7-3-25-7-30-8-22-6-41-10-48-11-55-13-16-4-33-8-30-9-26-9-9-4-23-11-8-5-7-4-10-9-5-5-7-11-1-3v-16l3-6 10-12 16-11 15-7 19-6 20-4z" fill="#0B3166"/>
<path transform="translate(140,379)" d="m0 0 2 1-1 3 7-3h3v2l18-2h10l7 2 2 5v1l3 1-11 8-9 8-1 3 2 1-3 3 4 2-4 1-3-2 1-4h-8v-2l-6-1-1-4-17 1-1 3-7 1-2 8-7-1-1 6-6 1-3 6h-6l-1 6h-5l-3 5-5 2-2-3 8-9 6-9 8-13 6-7 8-7 12-9z" fill="#B0B5B9"/>
<path transform="translate(642,934)" d="m0 0h7l2 2v3h3l4 8 3 7 2 5h2l1 6h2l2 6 3 3 4 9 5 3 1 3 3 2v2l3 1 3 5 7 6 4 4 7 6 3 1 2 5 6 2 5 5 8 4 6 5 9 3 17 9 18 8 20 7 18 6 28 7 15 3 22 4 14 2 10 2 39 2h63l30-1 22-3 17-3 7-2 21-7 18-8 9-5 4-3 5-3 2-4h5l3-10 3-2 2 1 1-13-1-3-6 2-2-6-15-2v-5l3-2 13-1 6-2-2-4 1-2 4 2 1 12v21l-3 9-4-1-2 7-3 2h-3l-2 5-10 6-17 8-19 7-13 4-25 5-36 4-27 2h-36l-18-2h-13l-41-5-24-4-22-5-31-8-12-4-13-4-20-8-23-11-9-5-13-8-10-8-11-9-7-6-3-3-5-4-3-5-5-4-3-5-4-4-3-7-5-4-4-10-3-2-5-14-2-3-5-2h-17l5-4z" fill="#1A4A75"/>
<path transform="translate(441,605)" d="m0 0h9l19 2 9 1h23v3l-7 1-1 16-1 84-1 6-2-2-1-32-1-18-3-19-4-7-4-4-2-1v-4l-4 2-7-1-2-2-10-4v-2l-6-2-5-1-7-1-1-5 6-4 4-3z" fill="#40648E"/>
<path transform="translate(1910,485)" d="m0 0h4l1 3v19l-31 10-29 10-17 7-4 1 2-3 12-5 10-4 36-12 19-6v-13l-1-2-7 1-8 4-8 2h-6v2l-17 5-8 2-19 6-26 7-9 3-18 4-27 7-6 2-15 2-22 5-18 5-40 9-43 9-21 4-25 5-9 2-22 4-19 3-35 6-16 2-4 2-20 2-13 3h-4l-2 2h-8l1-2 12-4 16-2 8-2 17-2 19-3 6-2 31-5 69-13 12-2 9-2 11-2 3-1 26-5 31-7 25-6 16-4 74-19 24-7 31-9 27-8 22-6z" fill="#1A4B77"/>
<path transform="translate(1896,555)" d="m0 0h1l1 470h-1l-2-29v-19l-2-4v-375l2-21z" fill="#B5BABE"/>
<path transform="translate(813,377)" d="m0 0 2 2h14l6-1 9 1h7l9 4v2h2v2l2 1-12 8-10 9-5 6-3-2 1-3h-10l-6-2-7-1h-13l-3-1-9 3-5 1v-2h-2v2h-2l1-4 11-11 14-9z" fill="#B1B6BA"/>
<path transform="translate(1477,377)" d="m0 0 17 1 11 2 8 1-3 19-1 3-6 3h-6l-2-1-18-1h-19l-5-3h-3l-2 4-2-20-2-5h7l13-2z" fill="#B1B6BA"/>
<path transform="translate(492,647)" d="m0 0h1l1 336 1 17 3 10 7 14-5-2-6-5-4-12-2-1v-61l-1-67 1-37v-109l-4-2 3-7 3-3 1-6z" fill="#45678E"/>
<path transform="translate(1750,377)" d="m0 0 22 1 14 3 5 2-3 9-1 8h-2l-1 3-10 2-8-1-30-1-5-2h-5l-2 2-2-18-1-4 19-3z" fill="#B1B6BA"/>
<path transform="translate(345,377)" d="m0 0 11 4 7 5v12l-5 5-10 1-39-1-7-2v-2h-3l-3-11-5-5-9-4 4-1 4 2h10l16-2h3l22 1h4z" fill="#B1B6BA"/>
<path transform="translate(475,378)" d="m0 0h31l12 2 6-1-3 8-3 19h-10l-3-1-27-1-15-3-3-1-1-11-3-8 9-1z" fill="#B1B6BA"/>
<path transform="translate(914,644)" d="m0 0h79l14 2v2l-11 1-77 1-9 2h-18l-20 4-12 2-7 2-7 3-13 4-9 4-15 8-5 5-6 7-3 7-1 5v9l6 12 5 5 8 7 8 5 3 1v2l6 2 16 8 24 10 22 7 16 5 24 6 13 3 15 4 23 5 11 3 1 2h-7l-41-10-22-5-31-9-30-10-26-11-15-8-11-6-5-4-4-4v-2l-5-2-8-13-1-2v-15l5-9 5-6 10-8 16-9 18-7 22-6 26-3 7-2h8l2 1 1-3z" fill="#1B4A74"/>
<path transform="translate(24,485)" d="m0 0 4 3 15 1 23 7 17 5 13 4 12 3 13 4 14 4 10 3 32 8 22 6 35 9 28 7 50 11 27 5 43 8 23 4 55 9 14 2 15 1 16 4 13 1 6 3 3 9-2 5-2 1h-22v-3h-29l-13-2-14-1h-22v-1l9-1h20l26 2 34 1 2 1v2l4 1v-10l-1-5-18-1-14-2-34-5-20-4-27-4-14-3-20-3-12-3-19-3-21-4-32-7-15-3-8-2-42-10-24-6-53-14-12-3-6-3-16-3-11-4-15-4-6-2-13-4-7-2-17-3-5-2v-2h-8v15l-6-3-1-2v-10z" fill="#1A4A74"/>
<path transform="translate(1902,510)" d="m0 0 3 1-6 4-1 27-3 50-1 6v375l2 1v27l1 10v14h2l1 17-3-3-3-19-2-29v-231l-3 1-97-1-1-4h99l1 1v-236l3-5 6-5z" fill="#506E8F"/>
<path transform="translate(1230,357)" d="m0 0h10l14 1 28 4 16 5 8 4-2 3-4-1-2 1h-17l-39-1-19-2h-24l-11 2-4-1-5 2h-5l1-3 15-6 20-4 20-3z" fill="#8B959D"/>
<path transform="translate(982,378)" d="m0 0 9 1 6 2 11 7 15 13 1 4-2 1-10-2-13-1-6 1h-7l-11 2-5-3-5-5-10-9-8-5 1-2 4 2h3l1-2 6-1 10-2z" fill="#B1B6BA"/>
<path transform="translate(1014,533)" d="m0 0h49l39 2 50 4v1h-33l-17-2h-66l-62 1-5 1-28 1-5 2h-8l-8 3-10 1h-7l-3 1h-5l-6 3-20 3-2 2-8 3-9 1-8 4-15 4-6 4-13 4-7 4h-5l1-3 13-5 5-3 10-4 21-8 22-6 18-5 22-4 16-3 47-4z" fill="#617A94"/>
<path transform="translate(1726,427)" d="m0 0 5 2 39 2 9 1 1-2 5-1-1 11-4 7-9 4-25 3h-7l-8-4-4-6-2-8v-8z" fill="#E4E6E7"/>
<path transform="translate(304,428)" d="m0 0 5 1 9 2h41l2-1-2 11-5 10-7 6v1h-8l-3-2 3-1-11-2-13-1-8-4-5-13 1-6z" fill="#E4E6E7"/>
<path transform="translate(1036,424)" d="m0 0 7 2 4 6 2 5v7l-5 5-3 1h-23l-15-2-8-5-4-5-4-8 1-2 12 1 16-1 14-1z" fill="#E4E6E7"/>
<path transform="translate(762,425)" d="m0 0h2l1 2 10 1h9l22 2h14l1 1 2-2-1 4-7 10-4 3-8 2-13 1h-27l-6-4v-8z" fill="#E4E6E7"/>
<path transform="translate(1832,535)" d="m0 0 2 1-11 8-6 5h-2v2l-8 7-7 9-6 8-2 7-2 12-1 13-1 48v286l1 115-1 42 2 9 1 3v15l-2-4-2-1-2-10v-506l4-23 5-12 6-7 7-8 11-10 11-7z" fill="#1A4A75"/>
<path transform="translate(1249,601)" d="m0 0h19l2 4 2 69 4 14 2 36 1 12 1 19-1 7v7l-1 5h-8l3-1v-5l2-4v-12l-1-15-3-14-1-14-2-85-1-15-2-2-18 1-9 3-3 9-3 4h-2l-2 7-3 2h-4v4l-19 6-7 1h-19l-11-1-6-2v-2l19 1 6 1h8l23-5 4-2 2-4 5-1 3-10 5-1 2-11 9-4z" fill="#1B4A74"/>
<path transform="translate(1139,427)" d="m0 0 8 2h11l20 2 8-1 2 1v-2h2l-2 9-4 7-10 3-21 2h-12l-7-3-2-3-1-9 1-7z" fill="#E4E6E7"/>
<path transform="translate(586,428)" d="m0 0h23l3 1 20 1h11l3 3-9 9-10 5-13 2-19-1-10-3-3-7z" fill="#E4E6E7"/>
<path transform="translate(135,402)" d="m0 0h17l1 3 6 2v2h8v4l5 1 9 1 4 3 20 5 4 2 18 4 8 3 12 3 9 3v1l-9 1h-6l-3-1-11 2-13-6-12-3-6-2-15-2-20-1-1-2 3-8v-4l-6-2v-2l-4 1-10-2-1-2-6-1-1 3-6 2-2-1v-2l7-1-1-3z" fill="#597491"/>
<path transform="translate(1449,427)" d="m0 0 6 1 1 1 9 1h25l10 1 9-2-1 8-4 7-5 3-5 1h-33l-6-3-4-8z" fill="#E4E6E7"/>
<path transform="translate(1235,608)" d="m0 0h1l-1 7-1 3-4 1-4 10-5 1-2 5-8 3-19 4h-8l-19-2-28-3-6-2-32-5-6-2-14-2-3-1-19-2-4-2 15 1 22 2 6 2 11 2 3 1 14 2 10 2h9l3 1 5 1 4-1 3 1 8 1v-1l15-1 3 3 1-3 3 1 5-2v-6l5-1 4 2 1-2 4-2 5-1 3-2 9-2 4-7 3-3z" fill="#18538F"/>
<path transform="translate(620,388)" d="m0 0h21l19 4 9 1 2 2v4l2 1-9 10h-3v-3h-9l-14-3-23-2-8 1-1 2h-3l-1-4 6-9 5-1 7-2z" fill="#B1B6BA"/>
<path transform="translate(140,379)" d="m0 0 2 1-1 3 7-3h3v2l18-2h10l7 2 2 5v1l3 1-11 8-9 8-1 3 2 1-3 3 4 2-4 1-3-2 1-4h-8v-1l9-1v-3h2l-1-3 2-2-1-3-3 1-7-2v-2l-7 1h-15l-10 3-4 1-1-1-3-1 3-5 11-8z" fill="#A1A9AD"/>
<path transform="translate(1335,402)" d="m0 0 5 1h3l8 17 3 11v10l-5 5h-6l-6-5-8-17-12-18 3-1 13 1z" fill="#C0C5C9"/>
<path transform="translate(633,362)" d="m0 0 87 1 1 4-1 7-6 2-11 1-5-1h-6l-5-2-12-3-16-1-24 1-9 2v-4z" fill="#88939C"/>
<path transform="translate(361,397)" d="m0 0 2 1v10l-1 8-5-1v2l-2 1-45-1-2-2h-7l-1-16h2v2l7 1 45 1 6-2z" fill="#C0C5C9"/>
<path transform="translate(1724,412)" d="m0 0 1 2 10 2 4 1h45v-3h2v8l-1 7-6 3-34-1-14-1-3-1v-2l-3 1-1-2z" fill="#D3D5D6"/>
<path transform="translate(1800,560)" d="m0 0v3l-6 7-5 15-3 19v506l1 10 3 1 3 11v2l6 1 3 7v4h-2l-1-6h-5l-3-7-2-6-3-1-2-12-1-58v-61l1-48v-349l2-12 5-15z" fill="#0B3166"/>
<path transform="translate(1943,389)" d="m0 0 2 3 5 15 1 10-2 1 4 1v2h7l-1 2-9 3h-9v-1l5-1-8-3-1-3-6-2-8-7-9-8v-3h-2v-5l19-1 6 1 5-2z" fill="#B2B7BB"/>
<path transform="translate(1509,406)" d="m0 0h1v10l-1 13h-2l-1 2-9 1-13-1h-20l-8-1-7-3v-10l1-4 5 1v2l13 1h20l12 2 4-3 4-1z" fill="#D3D5D6"/>
<path transform="translate(460,422)" d="m0 0 2 4 5 2 21 2h9l5 2 14-2-1 7-4 6-7 3h-28l-9-2-4-4-2-5z" fill="#E4E6E7"/>
<path transform="translate(605,415)" d="m0 0 39 3 10 4-4 6-5 4h-2v-2l-6 1h-13l-12-1-3-1h-18l-4-1 2-6 5-5 5-1z" fill="#D3D5D6"/>
<path transform="translate(782,415)" d="m0 0h10l19 2 14 1 3 2 2 1-6 9-4 2-4-1h-11l-21-2h-13l-8-1 1-7 3-3 6-1z" fill="#D3D5D6"/>
<path transform="translate(1184,378)" d="m0 0h19l12 3 2 1v2h2l1 3 3 1-13 8-4 2-4-1-6-4-15-4h-12l-4 2h-5v2l-7 1-2-1 2-4 7-8 2-1v3l4-2 8-1z" fill="#A2A9AD"/>
<path transform="translate(1364,521)" d="m0 0h7l6 2 5 8 1 4v88h-2l-3-12-3-24v-62l-5 1h-9l-8 2h-7l5-4 4-2z" fill="#567290"/>
<path transform="translate(1319,379)" d="m0 0 8 6 12 12 2 3-1 4-4-1-3 4-16-1-10-9-14-8-13-5-9-2v-2l7 1 14 4 3 2v-2l7-2 3-2h7l4-1 3 1z" fill="#A3AAAE"/>
<path transform="translate(392,617)" d="m0 0 2 1-6 7-3 10-3 27-1 55v207l-1 103 1 38 2 17 2 4 2 10-1 4-4-10-2-10-2-40v-46l1-332 2-23 4-13 4-6z" fill="#0B3166"/>
<path transform="translate(1895,757)" d="m0 0 2 3 1 265h-1l-2-29v-19l-2-4v-120l1-10z" fill="#9FA7AC"/>
<path transform="translate(813,377)" d="m0 0 2 2h14l6-1 9 1h7l9 4v2h2v2l2 1-12 8-5 4-2-1-1-6h-3v-2h-8l-12-2h-6l-2 1-8 1-6 2-6 1-2-2 5-5 15-9z" fill="#A2A9AD"/>
<path transform="translate(1687,487)" d="m0 0 3 1-4 4-3-1-1 2-11 1-10 2h-9v2h-3v-2h-2l-1 3-12 2-4 1-13 1-6 2-6 1-10 2-15 1-1 2-9 1h-9v2l-24 2-5 3-2-1v2l-7 2-1 3-10 3v3l-5 3-7 7h-3v2l-6 4-4 3-5 2-5 5-3-1 5-4 8-7 12-9 9-7 8-6 7-3 2-4 16-5 13-2 20-2 20-4 27-4 16-3 22-4z" fill="#5D7792"/>
<path transform="translate(460,409)" d="m0 0 2 3v3l4-1 5 2 24 1 14 2 7-1 1 1v9l-2 3-14 2-5-2-23-1-7-2-5-2-1-4z" fill="#D3D5D6"/>
<path transform="translate(1477,377)" d="m0 0 17 1 11 2 8 1-3 13-2-1-14-2-5-1h-23l-12 1-5-2v-2h-2l-3-7h7l13-2z" fill="#A2A9AD"/>
<path transform="translate(1136,415)" d="m0 0h2v2l10-2 14 1 21 3 8 1 1-2 2 1-3 10h-3v2l-11 1-19-2h-12l-7-2-6 2v-7z" fill="#D3D5D6"/>
<path transform="translate(1156,402)" d="m0 0h13l14 3 11 4v2l3 1-3 6h-2l-1 3-29-4-14-1-10 1-1-4 4-7z" fill="#C0C5C9"/>
<path transform="translate(689 1e3)" d="m0 0 8 5 5 5 10 9 13 10 13 8 19 10 22 10 24 8 20 6 23 6 28 6 32 5 28 3h12l20 2h34l37-3 26-3h5l-4 2-32 4-21 2-23 1-36-1-31-3-25-3-25-4-24-5-36-9-9-3-26-9-20-9-17-9-14-9-9-6-7-6-8-7-9-8-3-2z" fill="#0B3166"/>
<path transform="translate(1750,377)" d="m0 0 22 1 14 3 5 2-3 7-9 2-10-2h-19l-23-1-5-4-1-4 19-3z" fill="#A2A9AD"/>
<path transform="translate(642,934)" d="m0 0h7l2 2v3h3l4 8 3 7 2 5h2l1 6h2l2 6 3 3 4 9 5 3 1 3 3 2v2l3 1 3 5 7 6 4 4 7 6 3 1 2 5 6 2 5 5 8 4 6 5 9 3 17 9 18 8 20 7 18 6 5 1v2l-8-1-24-7-9-4-14-5-17-8-17-9-13-8-10-8-11-9-7-6-3-3-5-4-3-5-5-4-3-5-4-4-3-7-5-4-4-10-3-2-5-14-2-3-5-2h-17l5-4z" fill="#1A4A76"/>
<path transform="translate(1737,369)" d="m0 0h35l9 1 13 5v2h5l-5 4-2 2h-5l-9-3-6-1-22-1-17 2-6 1h-7l-4-3-6-1 1-2 12-2 6-3z" fill="#939EA7"/>
<path transform="translate(1460,369)" d="m0 0h37l9 1 9 4 23-1 9 1v1l-25 1-7 3-2 2h-11l-9-2-16-1-16 1-10 2-8-1-7-3 1-2 10-1 6-4z" fill="#939EA7"/>
<path transform="translate(630,363)" d="m0 0 2 1-6 6v2l9-2 31-1 9 1 13 3 6 2h7l2 1v2l-13 5-6 3-12-5-9-2-22-2-17 2-6 2v-4l9-11z" fill="#949EA7"/>
<path transform="translate(475,378)" d="m0 0h31l12 2 6-1-4 11h-2l-1 2-11-1-3-1h-33l-7-1-2 1-2-1-3-8 9-1z" fill="#A2A9AD"/>
<path transform="translate(345,377)" d="m0 0 11 4 7 5v3l-3 2-13-2h-22l-22 1-6-1-4-5-11-5 4-1 4 2h10l16-2h3l22 1h4z" fill="#A2A9AD"/>
<path transform="translate(999,402)" d="m0 0h7l12 2 5 1 2-2 10 11v2l-6-1-5 1h-17l-11 1h-12l-6-4-5-8 13-2h8z" fill="#C0C5C9"/>
<path transform="translate(488,369)" d="m0 0h17l10 1 7 3 11 2v1l-7 2-5 3-11-1-7-1h-28l-13 2h-6l-8-4 4-1 9-3 7-3z" fill="#939EA7"/>
<path transform="translate(982,378)" d="m0 0 9 1 6 2 11 7 7 6-1 3-5-2v-2h-3v-2h-13l-9-1-8 2-5 1-6 1-5-1-10-7-3-2 1-2 4 2h3l1-2 6-1 10-2z" fill="#A2A9AD"/>
<path transform="translate(1918,378)" d="m0 0 10 1 13 1 2 6v6l-10 2-7-1-13 1-1 4h2l-1 2-14-11-8-5-3-2 7 1 6 1 3-3 12-2z" fill="#A2A9AD"/>
<path transform="translate(186,371)" d="m0 0 6 1 7-1 3 2v2h3v2l3 3-16 8-6 1 1-4-2-2-1-2h-15l-9 1h-9v-2l-10 3 1-5 11-5 7 1 5-2h18l3 1z" fill="#939EA7"/>
<path transform="translate(307,439)" d="m0 0 16 3 9 1h17l10-3-4 10-8 7v1h-8l-3-2 3-1-11-2-13-1-8-4-3-8z" fill="#FCFCFC"/>
<path transform="translate(830,370)" d="m0 0 16 2 7-1h11l4 1 3-1 4 2v2h2l2 5-14 7h-3v-2h-2l-3-3h-3v-2h-16l-5-1-5 1h-15l2-4z" fill="#939EA7"/>
<path transform="translate(1910,485)" d="m0 0h4l1 3v19l-31 10-29 10-17 7-4 1 2-3 12-5 10-4 36-12 19-6v-13l-1-2-7 1-8 4-8 2h-6v2l-17 5-8 2-19 6-26 7-9 3-18 4-27 7-6 2h-6l3-2 27-7 5-2 22-5 15-5 26-7 10-3 16-5 9-3 9-2 3-3 15-4z" fill="#0B3166"/>
<path transform="translate(1902,510)" d="m0 0 3 1-6 4-1 27-3 50-1 6-1 65h-1l-1-55v-87l3-5 6-5z" fill="#587491"/>
<path transform="translate(1043,433)" d="m0 0 5 2 1 2v7l-5 5-3 1h-23l-15-2-8-5-4-5 1-2 8 3 9 1h14l16-2z" fill="#FDFDFD"/>
<path transform="translate(417,580)" d="m0 0h7l36 6 14 2 15 1 16 4 13 1 6 3 3 9-2 5-2 1h-22v-3h-29l-13-2-14-1h-22v-1l9-1h20l26 2 34 1 2 1v2l4 1v-10l-1-5-18-1-14-2-34-5-20-4-14-2z" fill="#1A4A75"/>
<path transform="translate(914,644)" d="m0 0h79l14 2v2l-11 1-77 1-2 1-25-1v-1l6-1h8l2 1 1-3z" fill="#0E3668"/>
<path transform="translate(1727,437)" d="m0 0 8 4 16 2h15l15-3 1-2h2l-2 6-5 5-6 2-25 3h-7l-8-4-4-6-1-6z" fill="#FDFDFD"/>
<path transform="translate(759,435)" d="m0 0 2 1 3 2 4 1 16 1h20l8-1 2 2h3l-6 5-8 2-13 1h-27l-6-4v-8h2z" fill="#FDFDFD"/>
<path transform="translate(256,440)" d="m0 0h10l23 6 18 4 29 3 4 2-1 2 14 2v3 1l-11-1-2-2-6-1-18-1-17-3-2-2-13-1-3-4v-2l-14 1-8-1-3-3z" fill="#5D7793"/>
<path transform="translate(303,369)" d="m0 0 5 2h14l1 1 1-2 8 2 12 4 1 3-9 1-17-1h-3l-16 2h-10l-4-2-15-3 4-2 7 1h3 5l10-5z" fill="#949EA7"/>
<path transform="translate(1865,346)" d="m0 0h4v2l2-1h12 3l9 2v1h-165l-1-2 41-1z" fill="#0B3166"/>
<path transform="translate(140,1135)" d="m0 0h2l-1 7-4 2-4 7h-3v2l-4 1-1 4-9 3-8 5-8 3-7 3-17 3-8 3-8 1v2l-16 4-15 2-1 5v9l6 1v1h-12l-1-3v-13l7-2 4-1h10v-2l24-7 21-5 15-6 8-4 9-2v-4l6-2 2-4 6-2 3-7h4z" fill="#16416F"/>
<path transform="translate(2019,426)" d="m0 0h1v5l-7 2-1 4-8 2-1 4-5 3h-2l-1 4-6 2-2 4-7 3-2 4-5 2-5 5-4 2-3 4-5 1-2 4-7 4-3 3-6 4-5 3-1-4h3v-2l6-2v-3l7-6 7-1v-3h2l1-3h2l2-4 8-5 3-3 6-4 4-4 5-3 8-5 2-4 5-1 1-3 5-3 5-1v-2z" fill="#607994"/>
<path transform="translate(1249,601)" d="m0 0h19l2 4v6h-2l-3-4-18 1-9 3-3 9-3 4h-2l-2 7-3 2h-4v4l-19 6-7 1h-19l-11-1-6-2v-2l19 1 6 1h8l23-5 4-2 2-4 5-1 3-10 5-1 2-11 9-4z" fill="#1B4A74"/>
<path transform="translate(907,611)" d="m0 0h44l13 1 2 1h10l9 2 36 2 22 1 9 2v1l-22-1-13-1-29-1-20-2h-69l-29 1v-1l19-3h18z" fill="#185390"/>
<path transform="translate(70,501)" d="m0 0 10 1 10 4 16 4 9 3 11 2 8 4 22 5 34 9 18 5 16 4 22 5 17 4 8 2v1l-9-1-16-3-22-5-15-4-31-8-8-2-38-10-7-2-9-3-12-3-6-2-13-3-12-5z" fill="#0B3166"/>
<path transform="translate(965,371)" d="m0 0 10 1 4 1 2-1 13 7-1 2-9-2-20 2-4 2-5 1-4 1-4-2-9-3-13-4 1-2 16 2 6-2 10-2h6z" fill="#949FA7"/>
<path transform="translate(1010,620)" d="m0 0h14l14 1 12 3 18 1 17 3 4 2 24 3 8 2 2 1 36 4 6 2 11 1h19l14-3 12-3-2 3-10 3-2 1-10 1h-23l-25-2-13-3-22-3-12-3-30-4-5-2-1-1-31-2-13-2-12-2z" fill="#0B3166"/>
<path transform="translate(444,483)" d="m0 0 10 1 24 5 38 7 16 3 9 2v1l-19 1-13-3-2-3h-7l-6 1-11-1-10-3-2-1v-2l-6-1-9 1-8-1-6-3v-2h2z" fill="#5C7692"/>
<path transform="translate(1791,756)" d="m0 0h99l2 4-3 1-97-1z" fill="#40648E"/>
<path transform="translate(1136,438)" d="m0 0 1 2 20 1h20l1-1 8-1v3l-4 4-16 3-13 1h-12l-7-3-2-3v-5l4 1z" fill="#FDFDFD"/>
<path transform="translate(1888,492)" d="m0 0 4 1-6 3-13 3-10 4-15 4-24 7-15 4-9 3-21 5-18 5-23 6-22 5-10 3h-5l1-2 18-5 48-12 35-9 24-7 31-9 27-8z" fill="#1A4A74"/>
<path transform="translate(1775,468)" d="m0 0 3 1-6 2-4 2-7 2v2l-22 6-4 1h-14l-5 3-14 2-11-1v-2l42-9 15-3 16-4z" fill="#577390"/>
<path transform="translate(542,502)" d="m0 0 15 1 16 3 17 2 20 2 19 5 2 2v13l-5 2 2-8h-2l-3-7-1-1h-11l-8-2h-6l-9-2h-3-3l-1-2-9-1h-21l-9-4z" fill="#5C7692"/>
<path transform="translate(1376,523)" d="m0 0 4 4 3 8v58l-2 2-1-9-2-5-1-6-1-30z" fill="#8A949C"/>
<path transform="translate(584,436)" d="m0 0 7 1 2 2 13 2h19l8-1 4 2-10 5-13 2-19-1-10-3-3-7z" fill="#FDFDFD"/>
<path transform="translate(1687,487)" d="m0 0 3 1-4 4-3-1-1 2-11 1-10 2h-9v2h-3v-2h-2l-1 3-12 2-4 1-13 1-6 2-6 1-10 2-14 1v-3l6-2 29-4 21-4 22-4z" fill="#627A94"/>
<path transform="translate(151,1095)" d="m0 0h1l-1 20-2 10h-2l-1 2h-1l-2 8-2 1-1 4h-4l-3 7-6 1-1 2 1-4 3-1 1-2h2l1-8h2v-2l4-1 1-4v-9l-1-5-4 1v-7l3-1v-2l11-5z" fill="#3D628C"/>
<path transform="translate(1331,390)" d="m0 0 7 6 3 4-1 4-4-1-3 4-16-1-10-9 1-3h6l2 1v-2h8l5-2 2 1z" fill="#B1B6BA"/>
<path transform="translate(1785,959)" d="m0 0h1v151l1 10 3 1 3 11v2l6 1 3 7v4h-2l-1-6h-5l-3-7-2-6-3-1-2-12-1-58v-61l1-35z" fill="#0B3166"/>
<path transform="translate(1893,895)" d="m0 0 3 2 1 21 1 84v23h-1l-2-29v-19l-2-4z" fill="#8C969E"/>
<path transform="translate(1269,667)" d="m0 0h1l1 42 2 20 2 10 1 20-1 8-2 6-3 1h-24l-1-7 2 3v3h22z" fill="#0B3166"/>
<path transform="translate(370,574)" d="m0 0h8l23 4 21 4 19 3 24 4 20 3 32 4 2 5-1 10-2-2 1-6-1-3-12-3-15-1-26-4-25-4-18-4-14-2-36-7z" fill="#0B3166"/>
<path transform="translate(1832,535)" d="m0 0 2 1-11 8-6 5h-2v2l-8 7-7 9-6 8-2 7-2 12-1 13-1 48h-2l-1-51 4-23 5-12 6-7 7-8 11-10 11-7z" fill="#1A4A76"/>
<path transform="translate(1896,555)" d="m0 0h1v97l-1 6h-1l-1 5h-1v-65l2-21z" fill="#929CA5"/>
<path transform="translate(322,458)" d="m0 0h12l9 2v1l25 4 37 9 5 2-2 1h-9l-13-2-4-1v-3l-16-1-15-3v-2l-8-1-19-4z" fill="#5E7793"/>
<path transform="translate(1527,578)" d="m0 0 4 1-1 2-22 4-32 5-8 1-4 2-20 2-13 3h-4l-2 2h-8l1-2 12-4 16-2 8-2 17-2 19-3 6-2z" fill="#1A4A75"/>
<path transform="translate(1451,436)" d="m0 0 5 2v2l10 2h25l13-3h3l-4 6-9 3h-33l-6-3-4-8z" fill="#FDFDFD"/>
<path transform="translate(1350,423)" d="m0 0h2l2 8v10l-5 5h-6l-6-5-5-11 1-3 3 3 6 2 4-2 3-6z" fill="#E5E7E7"/>
<path transform="translate(1346,411)" d="m0 0 3 4 2 5-1 4-4 7-5 2-8-4-3-3-6-11h2l3 3h10l3-3 2-3 2 1z" fill="#D3D5D6"/>
<path transform="translate(1159 1e3)" d="m0 0 4 2v23l-2-3-6 2-2-6-15-2v-5l3-2 13-1 6-2-2-4z" fill="#19538F"/>
<path transform="translate(1894,646)" d="m0 0h1l1 6h1v100l-2 1-1-53h-1v-37z" fill="#A4ABAF"/>
<path transform="translate(269,551)" d="m0 0 25 5 24 5 64 12 23 4 12 2v2l-13-1-14-3-20-3-12-3-19-3-21-4-32-7-15-3-2-1z" fill="#1A4A74"/>
<path transform="translate(86,438)" d="m0 0 4 5h-2l-1 5-3 2h-3v2l-5 3-5 5-4 1-1 3-7 1-2 5-8 1v2h-2v2l-4 1 2-5 14-9 5-5 9-7h2l2-4z" fill="#5F7893"/>
<path transform="translate(518,1031)" d="m0 0 13 3 12 1 39 1-1 3-9 1-1 1-19 1-17-1-3-3v-1l-8-1-6-3z" fill="#5A7591"/>
<path transform="translate(380,1054)" d="m0 0h2l1 12h2l1 2 2 22 2 10 5 5 10 7 20 6 3 2-15-1-8-3-11-7-7-9-6-24-1-11z" fill="#1A4A74"/>
<path transform="translate(639,705)" d="m0 0 1 4-1 2-3 1-3 24v29l-2 3-5-13-1-5v-8l3-12 3-6 3-13z" fill="#577391"/>
<path transform="translate(463,436)" d="m0 0 1 2 8 1 3 1h33l3 1-1 3-6 2h-28l-9-2-4-4-1-3z" fill="#FDFDFD"/>
<path transform="translate(1258,606)" d="m0 0h8l2 3 1 17v37h-1l-1-31-4-13-1-9-1-1h-11l-9 3-2 2-3 10-5 4-3 5-7 4v-4l6-2 3-7 4-4 4-10 9-3z" fill="#0B3166"/>
<path transform="translate(927,645)" d="m0 0h55l9 1-2 3h-49l-14-1-5-1v-1z" fill="#40648E"/>
<path transform="translate(623,1034)" d="m0 0v3l-3 2-17 2h-32l1-2h9l1-3 10-1z" fill="#5A7491"/>
<path transform="translate(642,934)" d="m0 0h7l2 2v3h3l4 8 3 7 2 5h2l1 6h2l2 6 3 3 2 7-3-2-1-3-5-4-4-10-3-2-5-14-2-3-5-2h-17l5-4z" fill="#1B4A74"/>
<path transform="translate(640,940)" d="m0 0h7l6 3 4 9 3 8 4 4 2 5v3l3 1v2l3 1 4 9 5 5v2l4 2 4 4-1 3-8-7-8-11-3-5-7-10-6-11-4-7-4-4v-2l-9-1-14 1 1-3z" fill="#0B3166"/>
<path transform="translate(119,1152)" d="m0 0h6l-4 2h-2v4l-25 10-14 5-21 5-14 4h-3v2h-8l2-1 2-6 6 1 13-3 10-2 26-7 2-2 13-4 2-2 7-1 1-4z" fill="#40648E"/>
<path transform="translate(1163,1016)" d="m0 0h1v21l-3 9-4-1-2 7-3 2h-3l-2 5-10 6-17 8-13 5h-3v-2l20-8 13-7 4-3 5-3 2-4h5l3-10 3-2 2 1z" fill="#1A4B78"/>
<path transform="translate(1892,973)" d="m0 0 4 1v27l1 10v14h2l1 17-3-3-3-19-2-29z" fill="#5A7591"/>
<path transform="translate(773,627)" d="m0 0h6l-4 2-15 4-10 3-12 4-1 2-18 6-11 5-9 4-2-1 6-5 10-3 1-4 15-4 10-3 12-4 11-3 4-2z" fill="#1A4B7A"/>
<path transform="translate(1592,566)" d="m0 0 3 1-1 2-25 5-9 2-22 4h-8v-3l30-5z" fill="#1A4A75"/>
<path transform="translate(120,1184)" d="m0 0h14v1l-25 5-32 6-17 4-4-1 8-3 18-5 3-1 14-1 13-4z" fill="#173C6D"/>
<path transform="translate(842,620)" d="m0 0h16v1l-24 3-14 2-15 2-20 4-14 1 3-2 15-4 23-3 12-2z" fill="#0B3166"/>
<path transform="translate(628,346)" d="m0 0 5 2h16l20-2h28l8 3v1h-76z" fill="#0B3166"/>
<path transform="translate(140,1135)" d="m0 0h2l-1 7-4 2-4 7h-3v2l-4 1-1 4-9 3-8 5-8 3-7 3-2-1 5-5 13-5 7-3h3v-4l6-2 2-4 6-2 3-7h4z" fill="#0E3769"/>
<path transform="translate(1442,873)" d="m0 0 2 3 3 11v23l-4 12h-1z" fill="#84909A"/>
<path transform="translate(307,451)" d="m0 0 21 1 11 2v3l14 2v3 1l-11-1-2-2-18-2-11-3 3-2-7-1z" fill="#CBCED1"/>
<path transform="translate(712,639)" d="m0 0 2 1 1 7-4 3-10 3-4 4-7 1-1 4-7 3-3 4-5-1 3-3 16-11 6-4 10-9z" fill="#516F92"/>
<path transform="translate(1249,601)" d="m0 0h19l2 4v6h-2l-3-4-18 1-9 3-2 1v-5l9-4z" fill="#1A4B78"/>
<path transform="translate(721,869)" d="m0 0 2 1v3l-7 3-1 4-6 2-1 4-5 2h-3l-1 5-9 2-1 3-10 5-2-1 12-9 9-6 14-11h2l2-4z" fill="#4C6C91"/>
<path transform="translate(104,412)" d="m0 0 4 1-1 3 3 1-2 3v5l-4-1-3 1v8h-5l-3 5-5 2-2-3 8-9 6-9z" fill="#B5BBBF"/>
<path transform="translate(1431,848)" d="m0 0 3 3 6 11 2 8v55l-3 9-5 7-1-3 2-9h3l2-13v-44l-1-4h-2l-2-5-2-9z" fill="#506E90"/>
<path transform="translate(1303,1042)" d="m0 0 1 3-6 7-5 5-10 7-21 11h-2l1-3h3v-2l5-1v-2l8-4 4-3h2v-2l4-1v-2h3l1-3 4-2 5-5h2z" fill="#173D6E"/>
<path transform="translate(1914,488)" d="m0 0h1v19l-31 10-29 10-17 7-4 1 2-3 12-5 10-4 36-12 19-6z" fill="#1D4C75"/>
<path transform="translate(122,407)" d="m0 0h2v2h2l-1 6-7-1-1 6-6 1-3 6h-7v-2l5-2h1l1-4 1-2-4 1 2-5-2-2 5-2-1 5 9-2v-4z" fill="#ABB1B5"/>
<path transform="translate(491,347)" d="m0 0 46 1-3 2h-87v-1z" fill="#0B3166"/>
<path transform="translate(2007,1104)" d="m0 0h9l4 3v7l-1 7h-2v2l-3-1 1-5h-2l-5-5-2-4-2 1 2-4z" fill="#40648E"/>
<path transform="translate(24,485)" d="m0 0 4 3 11 1v2l5 1 11 3v1l-11-1-8-3v-2h-8v15l-6-3-1-2v-10z" fill="#1A3F6F"/>
<path transform="translate(509,1116)" d="m0 0h8l2 4v11h-1l-1-9h-84l-5-1v-1h39l36-1v-2z" fill="#113B6C"/>
<path transform="translate(432,604)" d="m0 0h20l26 2 34 1 2 1-1 3h-12v-2h-29l-13-2-14-1h-22v-1z" fill="#1A4C7A"/>
<path transform="translate(1893,895)" d="m0 0 3 2 1 21v35h-1l-1-6h-1l-1-8z" fill="#929DA6"/>
<path transform="translate(1784,1070)" d="m0 0h1l1 40 1 10 3 1 3 11v2l6 1 3 7v4h-2l-1-6h-5l-3-7-2-6-3-1-2-12z" fill="#0B3166"/>
<path transform="translate(513,594)" d="m0 0h5l6 3 3 9-2 5-2 1h-22v-1h17v-10l-1-6z" fill="#26527C"/>
<path transform="translate(1832,535)" d="m0 0 2 1-11 8-6 5h-2v2l-8 7-7 9-6 8-2 7-2-1 1-6 3-6 6-7 7-8 11-10 11-7z" fill="#1A4C7A"/>
<path transform="translate(1610,501)" d="m0 0h7v2l-6 2-6 1-10 2-14 1v-3l6-2z" fill="#647C94"/>
<path transform="translate(1913,503)" d="m0 0v3l-19 6-39 13-3-1 23-9 7-3 8-2 17-5z" fill="#0B3166"/>
<path transform="translate(1850,1171)" d="m0 0 9 1 8 2 6 2 15 2 9 2 2 2 6 1-3 2-17-3-10-3-15-3-6-3z" fill="#1B4A74"/>
<path transform="translate(911,645)" d="m0 0h16v2l13 1v1l-21 1-2 1-25-1v-1l6-1h8l2 1 1-3z" fill="#1B4A74"/>
<path transform="translate(628,742)" d="m0 0h4l1 23-2 3-5-13-1-9 1-3z" fill="#4E6C8F"/>
<path transform="translate(729,856)" d="m0 0 4 1v3l5 1 22 11 7 1v1l-7 2-9-4-11-3-1-3-3-1v-2l-5-2z" fill="#1B4973"/>
<path transform="translate(1816,515)" d="m0 0m-4 1h4v2l-12 4-18 4-27 7-6 2h-6l3-2 27-7 5-2 22-5z" fill="#0B3166"/>
<path transform="translate(1555,1028)" d="m0 0h1v36l-1 22-2 9h-2l-1-3-2 4v-8l2-7 3 2z" fill="#1E4D78"/>
<path transform="translate(833,562)" d="m0 0 3 1-2 3-8 3-5 3-13 4-7 4h-5l1-3 13-5 5-3 10-4z" fill="#647C95"/>
<path transform="translate(779,627)" d="m0 0h5v2l-13 4-31 8-3-1 9-4 12-3 13-4z" fill="#1B4A74"/>
<path transform="translate(1075,1116)" d="m0 0h29l-2 2-21 2h-11l-11-1 3-2z" fill="#335881"/>
<path transform="translate(28,1185)" d="m0 0 1 2-1 5v9l6 1v1h-12l-1-3v-13z" fill="#244E78"/>
<path transform="translate(839,615)" d="m0 0 2 1 3-1 2 1h23l1 2h-7l-2 2h-16l-4-1-10 1h-9v-1l13-2z" fill="#194D7D"/>
<path transform="translate(1137,1064)" d="m0 0 2 1-9 6-9 4-13 4-15 5-13 3h-6v-1l21-5 20-7 16-7z" fill="#0B3166"/>
<path transform="translate(733,859)" d="m0 0 7 1 15 6 9 4 1 1 13 2v1l-18-1-8-4-19-9z" fill="#0B3166"/>
<path transform="translate(1364,521)" d="m0 0h7l5 1-1 4h-14l-8 2h-7l5-4 4-2z" fill="#5E7893"/>
<path transform="translate(256,440)" d="m0 0h10l14 4-4 2-7 1h-7l-5-3z" fill="#5C7692"/>
<path transform="translate(391,1105)" d="m0 0 6 2 11 6 17 5 3 2-15-1-8-3-11-7z" fill="#0C3367"/>
<path transform="translate(551,1036)" d="m0 0h31l-1 3-10 1h-13l-7-1z" fill="#8E989F"/>
<path transform="translate(1466,590)" d="m0 0 1 2-5 1-18 2-13 3h-4l-2 2h-8l1-2 12-4 5-1 18-1z" fill="#0E3668"/>
<path transform="translate(1352,434)" d="m0 0h2v7l-5 5h-6l-6-5-1-3 5 1h7z" fill="#FDFDFD"/>
<path transform="translate(1816,1153)" d="m0 0 2 4 14 3 1 3 14 4 1 3 2 1h-6l-5-2v-2l-8-1-5-2-2-4-7-1-1-1z" fill="#133D6D"/>
<path transform="translate(1338,1019)" d="m0 0 3 2-10 8-15 11-5 3 2-4 3-1v-2h2l1-3 8-4-1-3 3-1v-2l5-2 2-1 2 1z" fill="#466990"/>
<path transform="translate(382,470)" d="m0 0h7l20 5 1 2h-11l-13-2-4-1z" fill="#5F7892"/>
<path transform="translate(1629,558)" d="m0 0 1 2-1 2-17 4-11 2h-7l2-3 12-2 9-2 11-2z" fill="#1A4B78"/>
<path transform="translate(785,1058)" d="m0 0 10 3 27 9 5 1v2l-8-1-24-7-9-4z" fill="#1A4B78"/>
<path transform="translate(1951,477)" d="m0 0h4l-1 4-7 4-3 3-6 4-5 3-1-4h3v-2l6-2v-3l7-6z" fill="#627B94"/>
<path transform="translate(1775,468)" d="m0 0 3 1-6 2-4 2-5 2-11 2h-10l1-2 21-5z" fill="#9DA5AB"/>
<path transform="translate(1865,1173)" d="m0 0 12 2 16 3 20 5 2 1v15h-1v-14l-15-2-2-2-15-3-11-1-6-3z" fill="#40648E"/>
<path transform="translate(1163,1016)" d="m0 0h1v21l-3 9-4-1-2 7-7 3-1-2 1-2h5l3-10 3-2 2 1z" fill="#1A4C7C"/>
<path transform="translate(1605,566)" d="m0 0h7l-4 2-39 8-12 2h-6l4-2 12-2 27-6z" fill="#0B3166"/>
<path transform="translate(658,812)" d="m0 0h4v2l4 1v2l5 2 3 3 7 4v2l4 1 3 2v3l-5-2-9-6-9-8-7-5z" fill="#1E4472"/>
<path transform="translate(1895,577)" d="m0 0h1v42h-2l-1 2v-23z" fill="#8A949C"/>
<path transform="translate(1422,1115)" d="m0 0 10 1 9 1v3h-21l-2-1v9h-1v-10z" fill="#204E7B"/>
<path transform="translate(1236,743)" d="m0 0 2 1 2 5v5l4 2 1 7-1-3-5 2-3-6-2-12z" fill="#0D3367"/>
<path transform="translate(111,420)" d="m0 0h6l-3 2 1 2-5 3-4 1v3l-3-1 1 4-11 6-4-1 4-2 3-5 5 1v-6l2-1h5z" fill="#567290"/>
<path transform="translate(1910,485)" d="m0 0h4v7l-2-2-7 1-8 4-8 1 3-5 15-4z" fill="#0F386A"/>
<path transform="translate(56,1175)" d="m0 0 3 1v2l-14 4h-3v2h-8l2-1 2-6 6 1z" fill="#3F638C"/>
<path transform="translate(1687,487)" d="m0 0 3 1-4 4-3-1-1 2-11 1-10 2-1-2 10-4z" fill="#617994"/>
<path transform="translate(417,477)" d="m0 0 13 2 13 3v1l-16 1-14-5z" fill="#617A94"/>
<path transform="translate(1152,540)" d="m0 0h8l31 5v1h-18l-5-2h-9l-7-3z" fill="#6B8198"/>
<path transform="translate(967,998)" d="m0 0 17 3-2 4-1 1h-7l-7-5-3-2z" fill="#476990"/>
<path transform="translate(622,514)" d="m0 0 7 1 2 2v13l-5 2 2-8h-2l-3-7z" fill="#5A7591"/>
<path transform="translate(141,1128)" d="m0 0 2 3v4l-2 1-1 4h-4l-3 7-6 1-1 2 1-4 3-1 1-2h2l1-8h2v-2l4-1z" fill="#3D628C"/>
<path transform="translate(700,885)" d="m0 0 2 1-3 7-9 2-1 3-10 5-2-1 12-9 9-6z" fill="#506F92"/>
<path transform="translate(1233,750)" d="m0 0 3 1 3 10 5-1 2 11-1 3-3-4v-2h-3l-3-5-2-11z" fill="#1B4A74"/>
<path transform="translate(307,451)" d="m0 0h8l12 2-1 3 8 1v1h-12l-11-3 3-2-7-1z" fill="#9CA4AA"/>
<path transform="translate(260,354)" d="m0 0h7l1 2-4 1h-49l-7-1v-1h49z" fill="#4C6C90"/>
<path transform="translate(574,1091)" d="m0 0 3 1-17 13-10 7-3 2 2-4 3-3h2v-2l6-3 5-5z" fill="#677E97"/>
<path transform="translate(673,1115)" d="m0 0 3 1h-2l-1 3-7 4-4 4-4 1 1-7 6-2 2-3h5z" fill="#4B698B"/>
<path transform="translate(1281,1060)" d="m0 0m-1 1h6l-3 3-21 11h-2l1-3h3v-2l5-1v-2l8-4z" fill="#274B76"/>
<path transform="translate(1109,536)" d="m0 0 21 1 22 2v1h-33l-5-1v-2h-5z" fill="#6B8198"/>
<path transform="translate(875,1115)" d="m0 0 24 1 10 2 1 2-19-1-16-3z" fill="#33577F"/>
<path transform="translate(135,402)" d="m0 0 9 1 2 2 11 3-4 2-10-2-1-2-6-1-1 3-6 2-2-1v-2l7-1-1-3z" fill="#567290"/>
<path transform="translate(120,1184)" d="m0 0h14v1l-19 4h-11l3-2 5-2z" fill="#153B6C"/>
<path transform="translate(773,627)" d="m0 0h6l-4 2-15 4-10 3-13 4-3-1 6-3 9-2 6-2 11-4z" fill="#185390"/>
<path transform="translate(1657,553)" d="m0 0 2 1-1 2-23 5h-6l2-3z" fill="#1A4A75"/>
<path transform="translate(714,335)" d="m0 0h7l1 14-5-1v-5l-3-5z" fill="#103568"/>
<path transform="translate(1450,1134)" d="m0 0 19 1 14 1 2 3-18-1-17-3z" fill="#577291"/>
<path transform="translate(494 1e3)" d="m0 0h1l3 10 7 14-5-2-5-5z" fill="#A2AAAF"/>
<path transform="translate(1949,418)" d="m0 0 4 1v2h7l-1 2-9 3h-9v-1l5-1 1-4h2z" fill="#98A0A7"/>
<path transform="translate(1157,1045)" d="m0 0h5l-1 3-8 8-4 2-5 5-5 1 4-4 4-1 2-5 5-2z" fill="#0B3166"/>
<path transform="translate(477,1135)" d="m0 0h13v1l-12 2-17 1v-3z" fill="#647D97"/>
<path transform="translate(1163 1e3)" d="m0 0h1l1 11 2 3v11l-2 6h-1l-2-29z" fill="#0B3166"/>
<path transform="translate(1442,873)" d="m0 0 2 3 3 11v5h-2l-2 3-1-8z" fill="#A6ADB3"/>
<path transform="translate(767,873)" d="m0 0 11 1 1 3-10-2 1 5-5-1-3-3v-2z" fill="#40638A"/>
<path transform="translate(45,511)" d="m0 0h9l10 3 1 3 11 2v2l-13-3-9-4-8-1z" fill="#30527C"/>
<path transform="translate(97,428)" d="m0 0 4 1v4h-5l-3 5-5 2-2-3 8-7 3 1z" fill="#9FA7AC"/>
<path transform="translate(808,620)" d="m0 0h13v1l-22 3-7 2h-6l4-3 2-1z" fill="#185390"/>
<path transform="translate(492,607)" d="m0 0h20l2 1-1 3h-12v-2l-9-1z" fill="#123C6C"/>
<path transform="translate(1846,526)" d="m0 0 3 1-10 5-7 4-11 7h-3l12-9z" fill="#0B3166"/>
<path transform="translate(724,1097)" d="m0 0h9v1l-22 4h-4l-1-3z" fill="#3C5F84"/>
<path transform="translate(639,705)" d="m0 0 1 4-1 2-3 1-3 24h-1l-1-8 2-14 2-5z" fill="#31547C"/>
<path transform="translate(1435,608)" d="m0 0h20l-3 2-20 2v-3z" fill="#3C6188"/>
<path transform="translate(144,567)" d="m0 0 3 2 4 7v7l-4-4-4-7z" fill="#1C4470"/>
<path transform="translate(1930,495)" d="m0 0 2 1-5 5-9 5-3-1 7-6 4-3z" fill="#687F97"/>
<path transform="translate(322,458)" d="m0 0h12l9 2v3l-9-1-12-3z" fill="#567290"/>
<path transform="translate(1801,1140)" d="m0 0 6 1 2 5 1 4 7 1-1 2-8-1v-5h-5z" fill="#395F89"/>
<path transform="translate(1791,1127)" d="m0 0h1l1 7 6 1 3 7v4h-2l-1-6h-5l-3-7z" fill="#194772"/>
<path transform="translate(1525,1115)" d="m0 0h5l-1 2-7 1v2l-9 1h-15v-1l19-2z" fill="#133E6D"/>
<path transform="translate(1908,1057)" d="m0 0 5 3 8 7 10 7-2 1-9-5-1-3-5-2-5-4z" fill="#677E97"/>
<path transform="translate(1440,917)" d="m0 0h1v11l-3 7-4 6-1-3 2-9h3z" fill="#4E6D91"/>
<path transform="translate(421,1141)" d="m0 0h5l-6 3-16 1-8-1v-1l7-1z" fill="#4D6D8D"/>
<path transform="translate(1551,624)" d="m0 0 3 1 1 2 1 10-2 2-4-8-1-5h2z" fill="#5F7893"/>
<path transform="translate(839,615)" d="m0 0 2 1 3-1 2 1h6l1 2-22 2h-9v-1l13-2z" fill="#18538F"/>
<path transform="translate(334,458)" d="m0 0h15l5 2-1 3-11-1-2-2-6-1z" fill="#9CA4AA"/>
<path transform="translate(122,407)" d="m0 0h2v2h2l-1 6-7-1-1 6h-1v-6l3-1-1-5z" fill="#98A1A8"/>
<path transform="translate(128,551)" d="m0 0 5 1 2 1v2h2l4 5 3 3-2 4-1-3-6-5-4-5z" fill="#224774"/>
<path transform="translate(1943,416)" d="m0 0 5 1 1 3-3 3-7-1-2-4-2-1z" fill="#BCC1C5"/>
<path transform="translate(1376,523)" d="m0 0 4 4 2 4-1 4-3 3h-1z" fill="#949EA6"/>
<path transform="translate(771,884)" d="m0 0 5 5 7 10 3 3-1 2-7-6-1-3-5-5z" fill="#516F92"/>
<path transform="translate(422,722)" d="m0 0 8 1-1 4-14-1 2-3z" fill="#3E638E"/>
<path transform="translate(1539,613)" d="m0 0h5v2l4 1 5 5 1 4-3-1v2h-2l-2-8-4-2z" fill="#224673"/>
<path transform="translate(149,1115)" d="m0 0h1v7l-1 3h-2l-1 2h-1l-1 5-2-1 1-8 4-4z" fill="#1B4A74"/>
<path transform="translate(1547,1096)" d="m0 0 1 4-2 5-5 1-2 4-7 5-2-1 3-4 5-2 3-5 4-1z" fill="#1A4A76"/>
<path transform="translate(1194,546)" d="m0 0 10 1 14 3-1 2-8-1-9-1-6-2z" fill="#6A8097"/>
<path transform="translate(401,1110)" d="m0 0 4 2 20 6 3 2h-7l-17-6z" fill="#1B4A74"/>
<path transform="translate(657,917)" d="m0 0 2 3-5 3-6 4-5 5-3-1 10-9z" fill="#4C6C91"/>
<path transform="translate(93,1189)" d="m0 0h16v1l-20 4-4-1z" fill="#2B4F79"/>
<path transform="translate(792,581)" d="m0 0 2 1-3 3h-3v2l-5 2v2h-2l-1 3-4-2 5-4z" fill="#647C96"/>
<path transform="translate(1897,1179)" d="m0 0 18 5v15h-1v-14l-15-2z" fill="#3B618B"/>
<path transform="translate(110,1160)" d="m0 0 2 1-5 4-6 1-2 4-8 2 5-6 13-5z" fill="#133D6D"/>
<path transform="translate(1139,1109)" d="m0 0h9l-3 2-16 3h-4v-2l12-2z" fill="#385D85"/>
<path transform="translate(509,1116)" d="m0 0h8l1 4h-15v-3z" fill="#1A4A74"/>
<path transform="translate(604,1067)" d="m0 0h5l-4 4-12 8v-3l2-2 5-4z" fill="#647C95"/>
<path transform="translate(909,646)" d="m0 0 1 2 5 1-1 2-22-1v-1l6-1h8l2 1z" fill="#0C3266"/>
<path transform="translate(1775,468)" d="m0 0 3 1-6 2-4 2-5 2h-6l3-1 1-3z" fill="#909AA1"/>
<path transform="translate(141,402)" d="m0 0h11l1 3 6 2v1h-7l-7-3z" fill="#89949E"/>
<path transform="translate(626,743)" d="m0 0 4 1-1 12-3-1-1-9z" fill="#2D547D"/>
<path transform="translate(724,645)" d="m0 0 4 1-11 5-9 4-3-1 4-3 10-4z" fill="#0B3166"/>
<path transform="translate(94,1167)" d="m0 0 2 1-5 4-20 4 3-3 13-3z" fill="#1B4A74"/>
<path transform="translate(1271,380)" d="m0 0 7 1 14 4 3 4-9-3-15-4z" fill="#AAB0B4"/>
<path transform="translate(1325,1030)" d="m0 0h2v2l-11 8-5 3 2-4 3-1v-2h2l1-3z" fill="#4E6E92"/>
<path transform="translate(657,683)" d="m0 0v3l-6 5-5 8h-2l-2 4-1-2 4-6 8-9z" fill="#516E8D"/>
<path transform="translate(1152,540)" d="m0 0h8l9 2-1 2h-9l-7-3z" fill="#607994"/>
<path transform="translate(134,401)" d="m0 0h6v1l-6 2v2l-7 1-1 2v-7h6z" fill="#8D97A0"/>
<path transform="translate(1431,848)" d="m0 0 3 3 6 11-1 2-4-1-2-9z" fill="#7F91A5"/>
<path transform="translate(792,1103)" d="m0 0 16 1 3 3-14-1-5-2z" fill="#355881"/>
<path transform="translate(1490,543)" d="m0 0m-1 1m-2 1 2 1-2 4-5 2-5 5-3-1 5-4z" fill="#667E97"/>
<path transform="translate(1062,1117)" d="m0 0h11l6 1-3 2-17-1z" fill="#0C3367"/>
<path transform="translate(322,1153)" d="m0 0 2 1-3 2-16 1 2-2z" fill="#557293"/>
<path transform="translate(1547,1100)" d="m0 0 1 4-2 4-5 2-6 5-3-1 8-6 1-2 5-1z" fill="#0B3166"/>
<path transform="translate(1443,906)" d="m0 0h1l2 8-3 8h-1v-14z" fill="#9BA5AC"/>
<path transform="translate(709,847)" d="m0 0 6 1 4 2v2l5 1v2l-8-1-4-5z" fill="#294C76"/>
<path transform="translate(1379,800)" d="m0 0 7 4 8 6-2 2-12-9z" fill="#49698D"/>
<path transform="translate(69,1195)" d="m0 0h8v1l-17 4-4-1 8-3z" fill="#395F83"/>
<path transform="translate(1159 1e3)" d="m0 0 4 2v11l-2-3-4-2h3l-1-4-1-2z" fill="#234F78"/>
<path transform="translate(658,812)" d="m0 0h4v2l4 1v2l5 2 1 4-6-4-8-6z" fill="#3F6389"/>
<path transform="translate(1670,490)" d="m0 0 4 1-5 4-9 1v-2z" fill="#5D7792"/>
<path transform="translate(1910,485)" d="m0 0h4v7l-2-2-10 1 2-2h3l1-3z" fill="#103A6B"/>
<path transform="translate(28,1185)" d="m0 0 1 2-1 4-3-1-4 3v-6z" fill="#4A6A8F"/>
<path transform="translate(121,1184)" d="m0 0h13v1l-13 3-4-1z" fill="#2D517A"/>
<path transform="translate(893,1117)" d="m0 0h14l3 3-14-1z" fill="#1E4573"/>
<path transform="translate(1203,1095)" d="m0 0h3v2l-13 4h-5v-2l7-1z" fill="#2A4E78"/>
<path transform="translate(675,903)" d="m0 0 2 1-8 9-6 1 5-5z" fill="#597695"/>
<path transform="translate(630,754)" d="m0 0 2 3 1 8-2 3-3-9z" fill="#5F7893"/>
<path transform="translate(1894,646)" d="m0 0h1l1 6h1v10l-2 2-1-1z" fill="#A0A8AC"/>
<path transform="translate(708,650)" d="m0 0 3 1-9 5-5 1 4-5z" fill="#1B4A74"/>
<path transform="translate(927,647)" d="m0 0 13 1v1l-21 1-5 1 2-3z" fill="#1C4571"/>
<path transform="translate(1663,491)" d="m0 0h5l-3 2-7 3h-6l-2-2z" fill="#7E8F9F"/>
<path transform="translate(115,406)" d="m0 0h2l-1 4h2v2l-9 2 2-5 3-1z" fill="#BFC4C8"/>
<path transform="translate(544,363)" d="m0 0h6v11l-3-1v-8l-3-1z" fill="#597490"/>
<path transform="translate(81,1173)" d="m0 0 4 1-11 4-9 1 3-2z" fill="#0B3166"/>
<path transform="translate(1471,1136)" d="m0 0h12l2 3-14-1z" fill="#3B5F84"/>
<path transform="translate(1815,545)" d="m0 0 2 1-15 14v-3l10-10z" fill="#0B3166"/>
<path transform="translate(26,491)" d="m0 0h1l1 14-4-2 1-11z" fill="#27527B"/>
<path transform="translate(1733,477)" d="m0 0 3 1-2 2-4 1h-11l4-2z" fill="#98A1A7"/>
<path transform="translate(107,420)" d="m0 0 4 1-3 6h-7v-2l5-2h1z" fill="#98A0A6"/>
<path transform="translate(1418,1128)" d="m0 0h5l3 2v3l-8-1z" fill="#1C3F6C"/>
<path transform="translate(584,1082)" d="m0 0h5l-5 4-6 5-1-3h2l1-3z" fill="#657D96"/>
<path transform="translate(934,665)" d="m0 0 6 2 10 5 1 2-5-2-8-3-4-1z" fill="#4B6B90"/>
<path transform="translate(66,1194)" d="m0 0h3v2l-16 4 1-3z" fill="#0C3367"/>
<path transform="translate(1524,1141)" d="m0 0 14 1 2 3-11-1-5-2z" fill="#3B6186"/>
<path transform="translate(689,895)" d="m0 0v3l-10 5-2-1 8-6z" fill="#527093"/>
<path transform="translate(684,660)" d="m0 0 2 1-5 5-2 3-5-1 3-3z" fill="#5A7695"/>
<path transform="translate(1699,484)" d="m0 0h5l-2 3-11 1v-2z" fill="#99A2A9"/>
<path transform="translate(117,397)" d="m0 0 2 1v2h-4v2h2v2l-4-1-1 3-3-1 5-6z" fill="#9DA5AA"/>
<path transform="translate(1847,1167)" d="m0 0 10 3 8 2v1l-9-1-8-2z" fill="#40648E"/>
<path transform="translate(1817,1153)" d="m0 0h6l1 3-1 2h-5z" fill="#42658E"/>
<path transform="translate(558,1103)" d="m0 0h2l-1 3-12 8 2-4 3-3h2v-2z" fill="#637B95"/>
<path transform="translate(1249,601)" d="m0 0h12v1l-11 2-6 1 2-3z" fill="#185390"/>
<path transform="translate(1841,1166)" d="m0 0 7 2v2l2 1h-6l-4-2z" fill="#1D4B75"/>
<path transform="translate(837,1110)" d="m0 0h9l6 2v1h-8l-7-2z" fill="#406388"/>
<path transform="translate(1281,1060)" d="m0 0m-1 1h6l-3 3-10 5v-2l4-2z" fill="#416185"/>
<path transform="translate(518,1031)" d="m0 0 13 3 1 2h-8l-6-3z" fill="#8394A5"/>
<path transform="translate(999,645)" d="m0 0 8 1v2l-15 1 2-2h5z" fill="#0B3166"/>
<path transform="translate(982,645)" d="m0 0h10l7 1-4 2-6 1-2-2-5-1z" fill="#1A4B7A"/>
<path transform="translate(508,607)" d="m0 0 6 1-1 3h-12v-1h7z" fill="#0B3166"/>
<path transform="translate(120,403)" d="m0 0 6 1v5h-2v-2h-6v-2h2z" fill="#B8BDC1"/>
<path transform="translate(140,1135)" d="m0 0h2l-1 7-6 2 1-5h4z" fill="#123D6C"/>
<path transform="translate(1444,885)" d="m0 0h2l1 7h-2l-2 3v-9z" fill="#959FA7"/>
<path transform="translate(2e3 408)" d="m0 0 4 1-13 5v-3z" fill="#9CA4AB"/>
<path transform="translate(161,370)" d="m0 0 2 1v3l-8 1v-3z" fill="#8E989F"/>
<path transform="translate(211,356)" d="m0 0 9 1v2l-6 1h-8v-1l6-1z" fill="#99A3AA"/>
<path transform="translate(134,1141)" d="m0 0 1 3-2 3-6 1-1 2 1-4 3-1z" fill="#40648E"/>
<path transform="translate(461,1136)" d="m0 0h10v2l-10 1z" fill="#43668D"/>
<path transform="translate(651,1129)" d="m0 0h6l-2 4h-5l-1-3z" fill="#4B6B8C"/>
<path transform="translate(1525,1115)" d="m0 0h5l-1 2-7 2h-5l1-2z" fill="#174470"/>
<path transform="translate(498,1015)" d="m0 0 4 4 3 5-5-2-4-5h2z" fill="#909BA5"/>
<path transform="translate(1423,596)" d="m0 0h5l-3 4h-8l1-2z" fill="#123D6F"/>
<path transform="translate(147,574)" d="m0 0h3l1 2v7l-4-4-1-3z" fill="#4E6D8F"/>
<path transform="translate(339,454)" d="m0 0 7 1 1 3h-8l-3-2z" fill="#E4E6E7"/>
<path transform="translate(304,447)" d="m0 0 2 1z" fill="#D3D5D6"/>
<path transform="translate(1935,419)" d="m0 0" fill="#C0C5C9"/>
<path transform="translate(1934,418)" d="m0 0" fill="#C0C5C9"/>
</svg>
